<svg width="58" height="58" viewBox="0 0 58 58" fill="none" xmlns="http://www.w3.org/2000/svg">
<g clip-path="url(#clip0)">
<path d="M21.7863 0L0 12.6875L7.57625 17.2188L29.0363 4.35L21.7863 0Z" fill="#DECCC0"/>
<path d="M50.4599 17.2188L29.0361 30.0875L36.3224 34.4375L57.9999 21.75L50.4599 17.2188Z" fill="#DECCC0"/>
<path d="M7.57625 17.2188L0 21.75L21.7863 34.4375L29.0363 30.0875L7.57625 17.2188Z" fill="#DECCC0"/>
<path d="M37.2288 38.1096C36.9424 38.2764 36.627 38.3561 36.3116 38.3561C35.989 38.3561 35.6664 38.2727 35.38 38.1024L29.0399 34.3142L22.7324 38.0987C22.1632 38.4395 21.4528 38.4431 20.8872 38.1096L7.25 30.1672V45.3125C7.25 46.0737 7.72488 46.7552 8.44263 47.0162L28.3801 57.8913C28.5795 57.9638 28.7897 58 29 58C29.2103 58 29.4205 57.9638 29.6199 57.8913L49.5574 47.0162C50.2715 46.7552 50.75 46.0737 50.75 45.3125V30.1962L37.2288 38.1096Z" fill="#DECCC0"/>
<path d="M36.3224 0L29.0361 4.35L50.4599 17.2188L57.9999 12.6875L36.3224 0Z" fill="#DECCC0"/>
</g>
<defs>
<clipPath id="clip0">
<rect width="58" height="58" fill="white"/>
</clipPath>
</defs>
</svg>
