<svg width="15" height="16" viewBox="0 0 15 16" fill="none" xmlns="http://www.w3.org/2000/svg">
<path d="M8.82658 7.82495L14.7251 1.88997C15.0916 1.52155 15.0916 0.923778 14.7251 0.555359C14.3587 0.186625 13.7652 0.186625 13.3987 0.555359L7.50016 6.49033L1.60128 0.555359C1.23481 0.186625 0.641325 0.186625 0.274854 0.555359C-0.0916178 0.923778 -0.0916178 1.52155 0.274854 1.88997L6.17373 7.82495L0.274854 13.7599C-0.0916178 14.1283 -0.0916178 14.7261 0.274854 15.0945C0.458089 15.2786 0.698234 15.3708 0.938067 15.3708C1.1779 15.3708 1.41804 15.2786 1.60128 15.0942L7.50016 9.15925L13.3987 15.0942C13.582 15.2786 13.8221 15.3708 14.0619 15.3708C14.3018 15.3708 14.5419 15.2786 14.7251 15.0942C15.0916 14.7258 15.0916 14.128 14.7251 13.7596L8.82658 7.82495Z" fill="black"/>
</svg>
