<svg width="233" height="200" viewBox="0 0 233 200" fill="none" xmlns="http://www.w3.org/2000/svg">
<path d="M184.622 114.844L183.708 112.184C183.685 112.124 181.487 105.849 177.785 102.355C174.534 99.2871 164.633 95.0504 149.9 90.423C139.562 87.176 127.069 81.0774 123.15 79.1133C120.034 81.3681 115.407 82.2402 113.523 82.5145C105.008 91.4102 97.7342 91.3205 93.0928 89.6419C91.1104 88.9253 89.5411 87.3731 88.789 85.3837C88.0295 83.3753 88.1777 81.1419 89.1958 79.2548C96.7876 65.1947 98.7135 63.6084 99.3475 63.0864C102.245 60.7001 122.553 50.6846 128.328 52.2898C131.677 53.2264 145.622 60.0036 156.732 65.5233C159.171 66.7367 162.078 66.5243 164.32 64.9735L191.978 45.8158C192.913 45.1674 194.194 45.4051 194.836 46.348C195.48 47.2909 195.243 48.5788 194.308 49.2272L166.65 68.3849C163.184 70.7864 158.685 71.1125 154.912 69.2368C139.881 61.7668 129.531 56.9234 127.227 56.2801C123.813 55.3157 105.086 63.7083 101.951 66.2905C101.016 67.0615 98.1221 71.3905 92.809 81.2316C92.3646 82.0557 92.2993 83.0315 92.632 83.9099C92.9609 84.782 93.6188 85.433 94.4838 85.7464C99.6036 87.5994 105.323 85.3142 111.028 79.1449L111.552 78.5786L112.315 78.4977C114.129 78.298 119.303 77.3159 121.415 75.19L122.473 74.1245L123.804 74.8108C123.957 74.8891 139.294 82.7547 151.125 86.4694C161.958 89.872 175.864 94.8671 180.597 99.3339C183.428 102.006 185.447 105.809 186.567 108.3C190.156 105.764 197.527 100.777 203.206 98.4112C210.697 95.2918 216.896 92.6906 216.897 92.6906C217.944 92.2494 219.148 92.75 219.585 93.8054C220.022 94.8595 219.526 96.0729 218.478 96.5115C218.478 96.5115 212.275 99.1139 204.78 102.236C197.61 105.223 186.977 113.094 186.872 113.174L184.622 114.844Z" fill="white"/>
<path d="M180.047 123.183C178.332 123.184 176.385 122.696 174.218 121.722L173.597 121.443L173.264 120.844C173.135 120.617 169.86 115.037 161.076 112.594C158.922 111.993 156.914 111.345 154.973 110.718C151.079 109.458 146.661 108.03 145.427 108.793C145.248 108.902 145.123 109.184 145.05 109.63C144.867 110.759 143.813 111.522 142.69 111.34C141.57 111.157 140.808 110.094 140.991 108.965C141.264 107.275 142.034 106.029 143.28 105.262C146.122 103.509 150.363 104.879 156.231 106.776C158.132 107.39 160.098 108.026 162.171 108.602C170.965 111.049 175.199 116.335 176.449 118.179C178.283 118.935 180.534 119.5 181.87 118.519C183.737 117.15 183.749 113.061 183.606 111.736C183.483 110.602 184.297 109.578 185.423 109.453C186.547 109.325 187.566 110.14 187.693 111.275C187.779 112.039 188.413 118.829 184.303 121.857C183.103 122.742 181.68 123.183 180.047 123.183Z" fill="white"/>
<path d="M141.328 103.348V103.38C141.329 103.437 141.332 103.403 141.328 103.348ZM158.948 141.458C157.277 141.458 155.479 141.038 153.565 140.196C146.311 137.01 131.908 125.845 131.299 125.373C130.4 124.675 130.233 123.374 130.928 122.469C131.622 121.563 132.914 121.396 133.813 122.095C133.957 122.208 148.42 133.42 155.211 136.402C157.471 137.395 159.366 137.578 160.848 136.949C162.653 136.179 163.572 134.32 163.959 133.281L164 133.175C164.878 130.82 166.08 127.598 152.941 119.656C137.995 110.62 137.221 104.572 137.217 103.451L137.137 100.958C137.102 99.8155 137.992 98.86 139.127 98.8233C140.264 98.7955 141.211 99.6841 141.248 100.827L141.327 103.337C141.381 103.648 142.415 108.463 155.059 116.107C169.906 125.082 169.581 129.99 167.848 134.63L167.811 134.736C167.192 136.397 165.672 139.388 162.45 140.761C161.359 141.226 160.189 141.458 158.948 141.458Z" fill="white"/>
<path d="M141.819 148.213C140.054 148.213 138.078 147.916 135.896 147.322L135.721 147.266C131.764 145.799 125.815 140.672 122.619 137.749C122.061 137.239 121.388 136.923 120.672 136.835C118.019 136.51 116.244 135.841 115.246 134.789C114.463 133.961 114.493 132.651 115.314 131.861C116.135 131.071 117.437 131.102 118.22 131.928C118.367 132.065 119.193 132.483 121.169 132.726C122.735 132.917 124.192 133.594 125.385 134.685C130.315 139.197 134.667 142.425 137.063 143.35C140.023 144.146 143.94 144.673 145.99 142.759C148.312 140.591 147.54 136.118 147.533 136.074C147.321 134.95 148.051 133.866 149.166 133.652C150.281 133.439 151.358 134.174 151.571 135.297C151.623 135.571 152.798 142.05 148.787 145.795C147.061 147.405 144.728 148.213 141.819 148.213Z" fill="white"/>
<path d="M128.259 155.741C125.91 155.741 123.302 154.954 120.459 153.379C119.463 152.828 119.1 151.569 119.648 150.567C120.195 149.566 121.445 149.2 122.44 149.75C125.831 151.628 128.565 152.078 130.568 151.086C133.618 149.577 134.395 145.049 134.403 145.005C134.576 143.875 135.623 143.106 136.749 143.276C137.872 143.452 138.64 144.51 138.466 145.64C138.424 145.912 137.381 152.329 132.38 154.802C131.115 155.429 129.739 155.741 128.259 155.741Z" fill="white"/>
<path d="M165.056 126.859C164.091 126.859 163.086 126.744 162.049 126.48C160.948 126.2 160.282 125.074 160.559 123.966C160.836 122.858 161.958 122.186 163.056 122.465C168.711 123.9 173.459 118.529 173.505 118.474C174.251 117.616 175.548 117.523 176.404 118.272C177.259 119.02 177.354 120.322 176.615 121.185C176.389 121.448 171.662 126.859 165.056 126.859Z" fill="white"/>
<path d="M113.782 159.655C112.878 159.655 111.95 159.533 111.014 159.285C107.783 158.432 104.804 156.172 102.928 153.228C99.511 153.669 94.2858 152.572 90.9048 146.29C89.107 146.519 86.2044 146.527 83.3947 144.973C80.7971 143.539 78.8637 141.131 77.6296 137.802C75.6385 138.094 72.5413 138.104 69.8508 136.219C66.7448 134.045 65.1165 130.066 65.0073 124.392C64.9847 123.25 65.8873 122.304 67.0223 122.283C67.0361 122.283 67.0499 122.283 67.0637 122.283C68.1798 122.283 69.0963 123.183 69.1189 124.312C69.1992 128.57 70.23 131.426 72.1784 132.807C74.732 134.614 78.3126 133.427 78.349 133.416L80.4218 132.712L81.0018 134.835C81.8518 138.005 83.3093 140.188 85.3369 141.324C88.2056 142.931 91.4246 141.988 91.456 141.978L93.1986 141.452L93.9418 143.125C97.3127 150.861 103.074 149.005 103.319 148.922L105.04 148.337L105.828 149.984C107.044 152.523 109.488 154.601 112.058 155.281C113.28 155.603 115.071 155.756 116.656 154.648C118.344 153.463 119.428 151.188 119.48 148.708C119.526 146.625 118.805 144.808 117.553 143.848C115.435 142.223 113.965 142.421 113.346 142.632L110.942 146.434C110.333 147.399 109.061 147.684 108.103 147.069C107.145 146.456 106.863 145.176 107.473 144.212L110.41 139.566L110.754 139.328C110.917 139.212 114.849 136.568 120.045 140.556C122.373 142.34 123.666 145.346 123.592 148.799C123.51 152.577 121.753 156.12 119.005 158.045C117.484 159.109 115.689 159.655 113.782 159.655Z" fill="white"/>
<path d="M111.918 143.103C111.597 143.103 111.272 143.027 110.968 142.867C109.966 142.34 109.574 141.097 110.092 140.086C112.42 135.421 107.864 132.701 107.337 132.405C105.577 131.42 104.04 131.117 102.768 131.501C101.118 132.002 100.296 133.56 100.288 133.577L97.0574 139.493C96.51 140.494 95.2596 140.86 94.264 140.31C93.2697 139.759 92.9069 138.5 93.4543 137.497L96.6343 131.677C96.8905 131.176 98.3581 128.552 101.5 127.562C103.896 126.806 106.532 127.219 109.333 128.786C116.237 132.646 115.236 139.111 113.742 141.991C113.375 142.697 112.659 143.103 111.918 143.103Z" fill="white"/>
<path d="M98.4498 134.713C97.4102 134.713 96.5201 133.923 96.4084 132.861C96.3368 132.243 95.5095 126.935 88.4161 127.101C86.5606 127.312 85.1444 128.767 84.2794 129.959C83.432 131.128 82.1376 131.908 80.7277 132.102C79.3341 132.291 77.9619 131.916 76.8621 131.04C74.9199 129.492 72.5007 128.113 69.6709 126.94C67.514 126.047 66.1104 125.585 65.0847 125.247C61.9423 124.212 61.5795 123.814 58.6317 119.834C52.0731 110.976 28.3776 106.617 21.2705 105.49C20.1494 105.312 19.3835 104.253 19.5593 103.123C19.7363 101.993 20.7846 101.223 21.9095 101.4C49.7091 105.801 58.9154 113.289 61.9285 117.359C64.3691 120.655 64.3691 120.655 66.3628 121.311C67.4487 121.669 68.9377 122.159 71.2352 123.111C74.4203 124.431 77.1722 126.004 79.4145 127.792C79.6882 128.01 79.9795 128.024 80.1728 127.999C80.4804 127.956 80.7679 127.781 80.96 127.517C82.9248 124.81 85.388 123.238 88.0809 122.973L88.2165 122.965C99.3838 122.637 100.49 132.34 100.499 132.439C100.61 133.577 99.7843 134.59 98.6544 134.703C98.5866 134.709 98.5188 134.713 98.4498 134.713Z" fill="white"/>
<path d="M153.31 63.2109C153.145 63.2109 152.975 63.2097 152.804 63.2071C150.211 63.1616 147.888 62.5714 145.641 62.0001C143.282 61.4023 141.055 60.836 139.03 61.1166C137.903 61.2695 136.866 60.4795 136.712 59.347C136.556 58.2145 137.344 57.1705 138.47 57.0138C141.286 56.6245 144.011 57.3172 146.645 57.9858C148.668 58.5002 150.757 59.0311 152.874 59.0665C156.69 59.1372 158.716 58.3473 162.734 56.7838C163.66 56.4236 164.68 56.0254 165.834 55.5957C168.441 54.6249 170.67 54.6957 172.46 55.8055C175.075 57.4284 175.492 60.5554 175.531 60.9068C175.658 62.0431 174.844 63.0669 173.717 63.1945C172.594 63.326 171.582 62.512 171.445 61.3845C171.438 61.3264 171.211 59.8804 170.289 59.3218C169.467 58.825 168.19 59.1322 167.261 59.4785C166.129 59.9007 165.127 60.2899 164.218 60.6439C160.143 62.2301 157.624 63.2109 153.31 63.2109Z" fill="white"/>
<path d="M80.8449 73.5488C78.28 73.5488 72.8777 72.3544 60.1813 66.9485C51.1508 63.1036 42.6024 58.8921 42.517 58.8504C41.4975 58.3461 41.077 57.1061 41.5766 56.0786C42.0763 55.0522 43.3092 54.6301 44.3273 55.1319C59.7732 62.7535 78.295 70.3548 81.273 69.3348C86.2634 66.7197 98.5293 64.097 99.049 63.9858C100.159 63.7533 101.251 64.4648 101.486 65.5834C101.719 66.7033 101.009 67.8016 99.8977 68.0367C99.7759 68.0633 87.6645 70.6531 83.1248 73.0281C82.7042 73.2493 82.1317 73.5488 80.8449 73.5488Z" fill="white"/>
<path d="M232.31 155.31L228.728 153.975C226.813 153.262 225.303 151.743 224.595 149.814L223.27 146.21C223.124 145.808 222.56 145.808 222.412 146.21L221.087 149.814C220.379 151.743 218.87 153.262 216.954 153.975L213.374 155.31C212.974 155.458 212.974 156.024 213.374 156.173L216.954 157.507C218.87 158.221 220.379 159.74 221.087 161.668L222.412 165.274C222.56 165.674 223.124 165.674 223.27 165.274L224.595 161.668C225.303 159.74 226.813 158.221 228.728 157.507L232.31 156.173C232.708 156.024 232.708 155.458 232.31 155.31Z" fill="white"/>
<path d="M19.2355 48.9199L15.6549 47.5864C13.7391 46.8723 12.23 45.353 11.5207 43.4242L10.1962 39.8195C10.0493 39.4175 9.48561 39.4175 9.33872 39.8195L8.01421 43.4242C7.30488 45.353 5.79582 46.8723 3.88 47.5864L0.299427 48.9199C-0.0998089 49.0678 -0.0998089 49.6353 0.299427 49.7832L3.88 51.1166C5.79582 51.8295 7.30488 53.35 8.01421 55.2788L9.33872 58.8836C9.48561 59.2842 10.0493 59.2842 10.1962 58.8836L11.5207 55.2788C12.23 53.35 13.7391 51.8295 15.6549 51.1166L19.2355 49.7832C19.6335 49.6353 19.6335 49.0678 19.2355 48.9199Z" fill="white"/>
<path d="M219.49 17.3304L216.477 16.208C214.865 15.6077 213.596 14.3285 212.998 12.7069L211.884 9.67218C211.761 9.33471 211.287 9.33471 211.162 9.67218L210.047 12.7069C209.452 14.3285 208.181 15.6077 206.57 16.208L203.556 17.3304C203.221 17.4555 203.221 17.9321 203.556 18.0572L206.57 19.1783C208.181 19.7787 209.452 21.0578 210.047 22.6807L211.162 25.7142C211.287 26.0517 211.761 26.0517 211.884 25.7142L212.998 22.6807C213.596 21.0578 214.865 19.7787 216.477 19.1783L219.49 18.0572C219.826 17.9321 219.826 17.4555 219.49 17.3304Z" fill="white"/>
<path d="M119.639 26.1953C118.994 26.1953 118.469 25.6682 118.469 25.0173V1.178C118.469 0.527065 118.994 2.28882e-05 119.639 2.28882e-05C120.284 2.28882e-05 120.808 0.527065 120.808 1.178V25.0173C120.808 25.6682 120.284 26.1953 119.639 26.1953Z" fill="white"/>
<path d="M133.766 27.4551C133.698 27.4551 133.629 27.4487 133.56 27.4361C132.923 27.3223 132.5 26.7106 132.614 26.0698L134.696 14.3366C134.81 13.6958 135.417 13.2685 136.052 13.3848C136.688 13.4986 137.111 14.1103 136.998 14.7499L134.917 26.4843C134.815 27.0544 134.322 27.4551 133.766 27.4551Z" fill="white"/>
<path d="M147.447 31.1963C147.312 31.1963 147.175 31.1723 147.042 31.123C146.436 30.8968 146.127 30.2205 146.349 29.6101L154.548 7.2445C154.772 6.63401 155.446 6.32308 156.052 6.54807C156.655 6.77305 156.966 7.45055 156.742 8.05977L148.545 30.4253C148.371 30.9005 147.922 31.1963 147.447 31.1963Z" fill="white"/>
<path d="M160.263 37.2993C160.062 37.2993 159.859 37.2475 159.673 37.1375C159.115 36.8089 158.93 36.0872 159.255 35.526L165.723 24.421C166.048 23.8598 166.764 23.6715 167.322 24.0013C167.881 24.3287 168.066 25.0504 167.739 25.6129L161.274 36.7179C161.056 37.092 160.665 37.2993 160.263 37.2993Z" fill="white"/>
<path d="M171.815 45.5791C171.545 45.5791 171.277 45.4856 171.056 45.296C170.565 44.8738 170.506 44.1319 170.925 43.6364L186.307 25.5114C186.729 25.016 187.467 24.9591 187.957 25.3812C188.448 25.8034 188.505 26.5466 188.086 27.0408L172.704 45.1658C172.473 45.4388 172.146 45.5791 171.815 45.5791Z" fill="white"/>
<path d="M105.514 27.4551C104.956 27.4551 104.464 27.0544 104.363 26.4843L102.282 14.7499C102.168 14.1103 102.591 13.4986 103.228 13.3848C103.869 13.2685 104.472 13.6958 104.585 14.3366L106.666 26.0698C106.779 26.7106 106.356 27.3223 105.72 27.4361C105.651 27.4487 105.58 27.4551 105.514 27.4551Z" fill="white"/>
<path d="M91.8306 31.1963C91.3548 31.1963 90.9078 30.9005 90.7333 30.4253L82.5364 8.05977C82.313 7.45055 82.6231 6.77305 83.2282 6.54807C83.8346 6.32056 84.5075 6.63402 84.731 7.2445L92.9279 29.6101C93.1513 30.2205 92.8425 30.8968 92.2361 31.123C92.1018 31.1723 91.9662 31.1963 91.8306 31.1963Z" fill="white"/>
<path d="M79.0131 37.2993C78.6126 37.2993 78.2209 37.092 78.0037 36.7179L71.5369 25.6129C71.2104 25.0504 71.3963 24.3287 71.9537 24.0013C72.5111 23.6715 73.228 23.8585 73.5556 24.421L80.0213 35.526C80.3477 36.0872 80.1619 36.8089 79.6044 37.1375C79.4186 37.2475 79.2152 37.2993 79.0131 37.2993Z" fill="white"/>
<path d="M67.4621 45.5791C67.132 45.5791 66.8043 45.4388 66.5733 45.1658L51.1914 27.0408C50.7721 26.5466 50.8298 25.8034 51.3207 25.3812C51.8103 24.9578 52.5511 25.0185 52.9691 25.5114L68.351 43.6364C68.7703 44.1319 68.7126 44.8738 68.2217 45.296C68.0007 45.4856 67.7308 45.5791 67.4621 45.5791Z" fill="white"/>
<path d="M119.639 200C118.994 200 118.469 199.473 118.469 198.823V174.983C118.469 174.333 118.994 173.806 119.639 173.806C120.284 173.806 120.808 174.333 120.808 174.983V198.823C120.808 199.473 120.284 200 119.639 200Z" fill="white"/>
<path d="M135.846 186.635C135.29 186.635 134.798 186.234 134.696 185.664L132.614 173.93C132.5 173.29 132.923 172.678 133.56 172.563C134.196 172.45 134.801 172.875 134.917 173.516L136.998 185.249C137.111 185.89 136.688 186.503 136.052 186.616C135.983 186.628 135.915 186.635 135.846 186.635Z" fill="white"/>
<path d="M155.645 193.525C155.171 193.525 154.722 193.232 154.548 192.756L146.349 170.392C146.127 169.78 146.436 169.103 147.042 168.878C147.645 168.655 148.319 168.966 148.545 169.574L156.742 191.94C156.966 192.55 156.655 193.228 156.052 193.454C155.917 193.503 155.78 193.525 155.645 193.525Z" fill="white"/>
<path d="M166.731 176.161C166.33 176.161 165.94 175.954 165.723 175.58L159.255 164.475C158.93 163.913 159.115 163.192 159.673 162.864C160.23 162.532 160.946 162.722 161.274 163.284L167.739 174.389C168.066 174.949 167.881 175.669 167.322 175.999C167.136 176.109 166.933 176.161 166.731 176.161Z" fill="white"/>
<path d="M187.197 174.903C186.868 174.903 186.539 174.763 186.307 174.491L170.925 156.365C170.506 155.87 170.565 155.126 171.056 154.704C171.545 154.285 172.285 154.34 172.704 154.836L188.086 172.962C188.505 173.455 188.448 174.198 187.957 174.621C187.736 174.811 187.467 174.903 187.197 174.903Z" fill="white"/>
<path d="M189.938 152.654C189.687 152.654 189.434 152.573 189.22 152.405L179.89 145.066C179.38 144.666 179.29 143.925 179.688 143.414C180.083 142.902 180.817 142.808 181.328 143.21L190.658 150.549C191.167 150.949 191.258 151.69 190.86 152.202C190.63 152.499 190.286 152.654 189.938 152.654Z" fill="white"/>
<path d="M208.144 142.959C207.969 142.959 207.791 142.92 207.623 142.836L186.433 132.196C185.854 131.905 185.618 131.198 185.908 130.617C186.196 130.036 186.898 129.799 187.476 130.089L208.667 140.729C209.245 141.018 209.479 141.726 209.191 142.307C208.987 142.721 208.573 142.959 208.144 142.959Z" fill="white"/>
<path d="M49.3409 152.654C48.9931 152.654 48.6491 152.499 48.4181 152.202C48.0214 151.69 48.1118 150.949 48.6202 150.549L57.9495 143.21C58.458 142.812 59.1937 142.9 59.5917 143.414C59.9897 143.925 59.8993 144.666 59.3895 145.066L50.0602 152.405C49.8468 152.573 49.592 152.654 49.3409 152.654Z" fill="white"/>
<path d="M31.1355 142.959C30.7048 142.959 30.2918 142.721 30.0872 142.307C29.7984 141.726 30.0344 141.018 30.6119 140.729L51.8016 130.089C52.3791 129.799 53.0821 130.033 53.3709 130.617C53.6596 131.198 53.4236 131.905 52.8461 132.196L31.6565 142.836C31.4882 142.92 31.31 142.959 31.1355 142.959Z" fill="white"/>
<path d="M103.435 186.635C103.366 186.635 103.297 186.628 103.228 186.616C102.591 186.503 102.168 185.89 102.282 185.249L104.363 173.516C104.477 172.875 105.076 172.444 105.72 172.563C106.356 172.678 106.779 173.29 106.666 173.93L104.585 185.664C104.483 186.234 103.99 186.635 103.435 186.635Z" fill="white"/>
<path d="M83.6337 193.525C83.4994 193.525 83.3625 193.503 83.2282 193.454C82.6231 193.228 82.313 192.55 82.5364 191.941L90.7333 169.576C90.958 168.966 91.6322 168.654 92.2361 168.878C92.8425 169.103 93.1513 169.78 92.9279 170.391L84.731 192.755C84.5565 193.232 84.1095 193.525 83.6337 193.525Z" fill="white"/>
<path d="M72.545 176.161C72.3441 176.161 72.1407 176.109 71.9537 175.999C71.3963 175.669 71.2104 174.949 71.5369 174.389L78.0037 163.284C78.3301 162.722 79.0458 162.533 79.6044 162.864C80.1619 163.192 80.3477 163.913 80.0213 164.475L73.5556 175.58C73.3372 175.954 72.9467 176.161 72.545 176.161Z" fill="white"/>
<path d="M52.0803 174.903C51.8103 174.903 51.5417 174.811 51.3207 174.621C50.8298 174.198 50.7721 173.455 51.1914 172.962L66.5733 154.836C66.9926 154.34 67.7308 154.285 68.2217 154.704C68.7126 155.126 68.7703 155.87 68.351 156.365L52.9691 174.491C52.7381 174.763 52.4105 174.903 52.0803 174.903Z" fill="white"/>
</svg>
