<svg width="58" height="58" viewBox="0 0 58 58" fill="none" xmlns="http://www.w3.org/2000/svg">
<g opacity="0.5">
<path d="M57.7426 37.1309L52.3051 28.0684C51.9789 27.521 51.388 27.1875 50.75 27.1875H39.875V21.75C39.875 20.7495 39.063 19.9375 38.0625 19.9375H28.8151C27.9016 28.072 21.0613 34.4375 12.6875 34.4375C9.33437 34.4375 6.2205 33.4152 3.625 31.6753V41.6875V47.125C3.625 48.1255 4.437 48.9375 5.4375 48.9375H11.2085C11.9589 51.0436 13.9526 52.5625 16.3125 52.5625C18.6724 52.5625 20.6661 51.0436 21.4165 48.9375H38.0625H39.875H43.8335C44.5839 51.0436 46.5776 52.5625 48.9375 52.5625C51.2974 52.5625 53.2911 51.0436 54.0415 48.9375H56.1875C57.188 48.9375 58 48.1255 58 47.125V38.0625C58 37.7326 57.913 37.41 57.7426 37.1309ZM16.3125 48.9375C15.312 48.9375 14.5 48.1219 14.5 47.125C14.5 46.1281 15.312 45.3125 16.3125 45.3125C17.313 45.3125 18.125 46.1281 18.125 47.125C18.125 48.1219 17.313 48.9375 16.3125 48.9375ZM48.9375 48.9375C47.9406 48.9375 47.125 48.1219 47.125 47.125C47.125 46.1281 47.9406 45.3125 48.9375 45.3125C49.9344 45.3125 50.75 46.1281 50.75 47.125C50.75 48.1219 49.9344 48.9375 48.9375 48.9375ZM43.5 38.0625V30.8125H49.7241L54.0741 38.0625H43.5Z" fill="#BD9A81"/>
<path d="M12.6875 5.4375C5.69125 5.4375 0 11.1288 0 18.125C0 25.1213 5.69125 30.8125 12.6875 30.8125C19.6838 30.8125 25.375 25.1213 25.375 18.125C25.375 11.1288 19.6838 5.4375 12.6875 5.4375ZM17.5958 23.0333C17.2405 23.3849 16.7765 23.5625 16.3125 23.5625C15.8485 23.5625 15.3845 23.3849 15.0292 23.0333L11.4042 19.4083C11.0671 19.0675 10.875 18.6071 10.875 18.125V12.6875C10.875 11.687 11.687 10.875 12.6875 10.875C13.688 10.875 14.5 11.687 14.5 12.6875V17.3746L17.5958 20.4704C18.3026 21.1772 18.3026 22.3264 17.5958 23.0333Z" fill="#BD9A81"/>
</g>
</svg>
