<svg width="58" height="58" viewBox="0 0 58 58" fill="none" xmlns="http://www.w3.org/2000/svg">
<g clip-path="url(#clip0)">
<path d="M57.6735 18.8864L48.6111 6.19899C48.2486 5.72774 47.7048 5.43774 47.1248 5.43774H10.8752C10.2952 5.43774 9.75145 5.72774 9.38896 6.19899L0.326546 18.8864C0.217797 19.2126 0.109048 19.5389 0.000299183 19.8651C-0.0359505 23.8888 3.22652 27.1875 7.25023 27.1875C9.42521 27.1875 11.3464 26.245 12.6877 24.7226C14.0289 26.245 15.9501 27.1875 18.1251 27.1875C20.3001 27.1875 22.2213 26.245 23.5626 24.7226C24.9038 26.245 26.825 27.1875 29 27.1875C31.175 27.1875 33.0962 26.245 34.4375 24.7226C35.7787 26.245 37.6999 27.1875 39.8749 27.1875C42.0499 27.1875 43.9711 26.245 45.3124 24.7226C46.6536 26.245 48.5748 27.1875 50.7498 27.1875C54.7735 27.1875 58.036 23.8888 57.9997 19.8651C57.891 19.5389 57.7822 19.2126 57.6735 18.8864Z" fill="#DECCC0"/>
<path d="M50.7495 30.8126C48.8247 30.8126 46.9506 30.2979 45.3121 29.3481C42.0351 31.244 37.7142 31.244 34.4372 29.3481C31.1602 31.244 26.8356 31.244 23.5623 29.3481C20.289 31.244 15.9608 31.244 12.6874 29.3481C9.96506 30.9286 6.59385 31.1316 3.625 30.1058V48.9375C3.625 50.9384 5.24898 52.5624 7.24996 52.5624H36.2497V34.4376H47.1246V52.5624H50.7495C52.7505 52.5624 54.3745 50.9384 54.3745 48.9375V30.1493C53.2218 30.5589 52.0074 30.8126 50.7495 30.8126ZM25.3748 45.3125H10.8749V34.4376H25.3748V45.3125Z" fill="#DECCC0"/>
</g>
<defs>
<clipPath id="clip0">
<rect width="58" height="58" fill="white"/>
</clipPath>
</defs>
</svg>
