<svg width="20" height="20" viewBox="0 0 20 20" fill="none" xmlns="http://www.w3.org/2000/svg">
<path d="M17.9933 7.5361L10.776 0.318862C10.5702 0.113008 10.2955 0 9.99685 0C9.704 0 9.42953 0.113008 9.22368 0.318862L2.00628 7.5361C1.57994 7.9626 1.57994 8.65675 2.00628 9.08293L2.66156 9.73854C2.86742 9.94423 3.14205 10.0574 3.43506 10.0574C3.72791 10.0574 4.01197 9.94423 4.21766 9.73854L8.4375 5.5278V18.9052C8.4375 19.5081 8.90969 20 9.51262 20H10.4394C11.0424 20 11.5624 19.5081 11.5624 18.9052V5.48032L15.8061 9.73854C16.0118 9.94423 16.2791 10.0574 16.5721 10.0574C16.8651 10.0574 17.1357 9.94423 17.3417 9.73854L17.9951 9.08293C18.4216 8.65658 18.4199 7.9626 17.9933 7.5361Z" fill="#C1B3A8"/>
</svg>
