<?xml version="1.0" standalone="no"?>
<!DOCTYPE svg PUBLIC "-//W3C//DTD SVG 20010904//EN"
 "http://www.w3.org/TR/2001/REC-SVG-20010904/DTD/svg10.dtd">
<svg version="1.0" xmlns="http://www.w3.org/2000/svg"
 width="128.000000pt" height="128.000000pt" viewBox="0 0 128.000000 128.000000"
 preserveAspectRatio="xMidYMid meet">
<metadata>
Created by potrace 1.11, written by Peter Selinger 2001-2013
</metadata>
<g transform="translate(0.000000,128.000000) scale(0.100000,-0.100000)"
fill="#000000" stroke="none">
<path d="M159 954 c-1 -5 -2 -18 -3 -28 -1 -10 -9 -20 -19 -22 -24 -3 -107
-87 -107 -107 0 -24 48 -75 73 -79 21 -3 22 -8 22 -78 -1 -85 -32 -166 -71
-185 -56 -27 -70 -67 -36 -98 26 -23 202 -25 202 -2 0 11 -19 15 -92 17 -78 3
-93 6 -96 20 -2 9 6 21 16 27 15 8 25 6 43 -10 21 -18 24 -19 27 -4 2 9 -2 22
-8 30 -10 12 -9 20 3 38 23 35 43 115 46 177 1 30 4 63 7 73 4 13 -1 17 -24
17 -16 0 -40 8 -52 18 -27 22 -22 47 20 91 21 24 37 31 65 31 32 0 36 2 30 21
-6 18 -5 19 12 8 31 -19 62 -71 109 -184 55 -135 85 -231 86 -275 0 -42 -39
-80 -82 -80 -34 0 -79 36 -85 68 -4 22 29 145 58 215 10 23 13 45 9 58 -7 17
-13 9 -35 -48 -37 -95 -57 -166 -59 -208 -4 -102 127 -151 196 -74 26 30 28
36 23 89 -4 32 -23 102 -43 156 -51 138 -52 150 -15 202 17 23 36 42 42 42 5
0 8 -4 5 -9 -3 -5 5 -30 19 -55 30 -57 31 -72 5 -79 -23 -6 -50 26 -53 62 -2
26 -14 27 -22 2 -19 -61 65 -119 109 -75 23 22 20 53 -10 95 -21 31 -24 41
-14 58 17 33 70 28 103 -9 15 -16 33 -30 40 -30 8 0 20 -11 27 -25 12 -23 12
-28 -7 -46 -13 -13 -33 -20 -61 -21 -39 0 -42 -2 -48 -35 -11 -60 7 -178 36
-232 10 -19 9 -25 -6 -35 -11 -9 -15 -19 -10 -31 6 -16 8 -17 19 -2 23 30 70
26 65 -5 -3 -21 -9 -23 -92 -28 -59 -3 -91 -9 -94 -17 -6 -20 167 -18 196 3
38 26 27 75 -20 93 -33 13 -57 80 -65 184 l-6 77 35 0 c46 0 85 31 98 78 15
56 13 62 -20 62 -20 0 -41 10 -62 30 -37 36 -65 44 -120 37 -49 -7 -85 -31
-117 -80 l-24 -36 -24 49 c-13 27 -39 60 -57 74 -36 27 -85 44 -87 30z"/>
<path d="M744 817 c1 -53 6 -100 10 -105 4 -4 6 7 3 24 -3 17 -1 38 4 45 9 15
10 13 14 -41 2 -39 15 -71 27 -64 6 4 6 10 -1 17 -6 6 -11 24 -11 40 0 15 -4
36 -9 46 -12 21 4 102 22 113 6 4 8 10 5 13 -13 14 -27 -7 -34 -50 -8 -54 -22
-60 -18 -7 1 20 -2 44 -6 52 -5 9 -8 -26 -6 -83z"/>
<path d="M844 895 c-6 -15 -9 -93 -5 -157 0 -16 6 -28 12 -28 6 0 7 9 3 23
-12 36 -7 149 8 158 19 12 30 -16 34 -85 4 -86 -4 -119 -27 -113 -11 3 -19 2
-19 -3 0 -13 26 -19 41 -10 18 12 23 166 6 200 -15 30 -45 38 -53 15z"/>
<path d="M941 900 c-10 -5 -9 -9 2 -13 10 -4 15 -18 15 -39 -1 -100 3 -171 9
-164 4 3 6 51 4 106 -2 74 1 100 10 100 16 0 3 13 -15 16 -7 1 -19 -2 -25 -6z"/>
<path d="M131 836 c-9 -11 -7 -15 9 -19 25 -6 35 7 16 22 -10 8 -16 8 -25 -3z"/>
<path d="M515 839 c-10 -15 1 -22 24 -14 12 3 19 11 16 16 -8 12 -32 11 -40
-2z"/>
<path d="M1099 713 c-1 -10 -2 -36 -4 -58 -3 -61 -15 -103 -31 -109 -8 -3 -14
-15 -14 -26 0 -21 16 -28 22 -9 2 6 24 13 49 16 42 5 47 3 54 -18 6 -22 8 -22
12 -5 3 11 11 26 19 34 8 7 14 20 14 27 0 9 6 12 15 9 8 -4 15 -15 15 -25 0
-10 5 -19 11 -19 11 0 9 31 -7 155 -11 78 -26 57 -43 -59 -11 -75 -15 -83 -32
-79 -17 5 -19 15 -19 94 l0 89 -30 0 c-21 0 -30 -5 -31 -17z m42 -25 c6 -118
0 -148 -30 -148 -17 0 -18 4 -11 31 5 17 10 55 11 85 2 37 7 54 16 54 7 0 14
-10 14 -22z m104 -77 c-1 -8 -8 -17 -15 -19 -9 -3 -11 1 -7 12 4 10 7 30 8 44
l1 27 7 -25 c4 -14 7 -32 6 -39z"/>
<path d="M745 690 c-3 -5 -1 -10 4 -10 6 0 11 5 11 10 0 6 -2 10 -4 10 -3 0
-8 -4 -11 -10z"/>
<path d="M845 620 c-3 -5 -1 -10 4 -10 6 0 11 5 11 10 0 6 -2 10 -4 10 -3 0
-8 -4 -11 -10z"/>
<path d="M895 620 c-3 -5 -1 -10 4 -10 6 0 11 5 11 10 0 6 -2 10 -4 10 -3 0
-8 -4 -11 -10z"/>
<path d="M743 586 c-9 -17 -5 -136 5 -136 4 0 7 30 7 67 0 57 3 68 18 71 15 3
17 -6 17 -87 0 -50 3 -91 8 -91 9 0 8 162 -2 178 -10 16 -43 15 -53 -2z"/>
<path d="M855 590 c3 -5 3 -10 -2 -10 -4 0 -7 -47 -5 -105 3 -96 5 -105 23
-105 10 0 19 4 19 10 0 5 -6 9 -12 7 -16 -3 -20 85 -4 96 8 5 8 9 -1 15 -17
11 -14 82 4 82 8 0 11 5 8 10 -3 6 -13 10 -21 10 -8 0 -12 -4 -9 -10z"/>
<path d="M937 580 c-16 -18 -14 -159 3 -189 13 -25 55 -28 64 -5 5 14 4 15 -8
5 -19 -16 -43 -4 -50 25 -4 14 -6 56 -5 95 2 65 3 69 25 69 13 0 24 4 24 9 0
15 -39 8 -53 -9z"/>
<path d="M740 411 c0 -17 4 -32 9 -35 4 -3 8 10 7 29 -1 42 -16 47 -16 6z"/>
<path d="M790 385 c0 -8 5 -15 10 -15 6 0 10 7 10 15 0 8 -4 15 -10 15 -5 0
-10 -7 -10 -15z"/>
</g>
</svg>
