<svg width="30" height="30" viewBox="0 0 30 30" fill="none" xmlns="http://www.w3.org/2000/svg">
<path d="M15.61 8.48884C15.3555 8.23419 14.9427 8.23419 14.6879 8.48884C14.4332 8.74329 14.4332 9.15631 14.6879 9.41096L19.6265 14.3496H6.50474C6.14355 14.3496 5.85059 14.6425 5.85059 15.0037C5.85059 15.3651 6.14355 15.6579 6.50474 15.6579H19.6199L14.6813 20.5965C14.5588 20.7186 14.49 20.8847 14.49 21.0576C14.49 21.2307 14.5588 21.3965 14.6813 21.5188C14.8038 21.6423 14.9716 21.7107 15.1457 21.7085C15.3193 21.7077 15.4858 21.6397 15.61 21.5188L21.6606 15.4684C21.7837 15.345 21.8524 15.1776 21.8505 15.0037C21.8493 14.8302 21.7813 14.6642 21.6606 14.5395L15.61 8.48884Z" fill="#786354"/>
<path d="M15.0082 0.940471C9.32002 0.939446 4.19151 4.36569 2.01477 9.62102C-0.161569 14.8765 1.04225 20.9255 5.06569 24.9465C10.557 30.4379 19.4599 30.4379 24.951 24.9465C30.4421 19.4556 30.4421 10.5528 24.951 5.06143C22.3198 2.41533 18.7397 0.931456 15.0082 0.940471ZM15.0082 27.7594C7.97648 27.7594 2.25303 22.0357 2.25303 15.004C2.25303 7.97222 7.97648 2.24877 15.0082 2.24877C22.04 2.24877 27.7636 7.97222 27.7636 15.004C27.7636 22.0357 22.04 27.7594 15.0082 27.7594Z" fill="#786354"/>
</svg>
