<svg width="25" height="25" viewBox="0 0 25 25" fill="none" xmlns="http://www.w3.org/2000/svg">
<path d="M22.0156 3.58887H16.2344V1.04492C16.2344 0.761719 16.0049 0.537109 15.7266 0.537109H9.27148C8.98828 0.537109 8.76367 0.766602 8.76367 1.04492V3.58887H2.98242C2.69922 3.58887 2.47461 3.81836 2.47461 4.09668V7.26562C2.47461 7.54883 2.7041 7.77344 2.98242 7.77344H4.18359V20.6982C4.18359 22.7734 5.87305 24.4629 7.94824 24.4629H17.0498C19.125 24.4629 20.8145 22.7734 20.8145 20.6982V7.77832H22.0156C22.2988 7.77832 22.5234 7.54883 22.5234 7.27051V4.09668C22.5234 3.81836 22.2939 3.58887 22.0156 3.58887ZM9.78418 1.55762H15.2188V3.59375H9.78418V1.55762ZM19.7939 20.6982C19.7939 22.2119 18.5635 23.4424 17.0498 23.4424H7.94824C6.43457 23.4424 5.2041 22.2119 5.2041 20.6982V7.77832H19.7939V20.6982ZM21.5029 6.75781H3.49512V4.60938H21.5078V6.75781H21.5029Z" fill="#C2C2C2"/>
<path d="M8.01172 20.8496C8.29492 20.8496 8.51953 20.6201 8.51953 20.3418V10.8838C8.51953 10.6006 8.29004 10.376 8.01172 10.376C7.72852 10.376 7.50391 10.6055 7.50391 10.8838V20.3418C7.50391 20.6201 7.7334 20.8496 8.01172 20.8496Z" fill="#C2C2C2"/>
<path d="M12.498 20.8496C12.7813 20.8496 13.0059 20.6201 13.0059 20.3418V10.8838C13.0059 10.6006 12.7764 10.376 12.498 10.376C12.2197 10.376 11.9902 10.6055 11.9902 10.8838V20.3418C11.9902 20.6201 12.2148 20.8496 12.498 20.8496Z" fill="#C2C2C2"/>
<path d="M16.9864 20.8496C17.2696 20.8496 17.4942 20.6201 17.4942 20.3418V10.8838C17.4942 10.6006 17.2647 10.376 16.9864 10.376C16.7032 10.376 16.4786 10.6055 16.4786 10.8838V20.3418C16.4737 20.6201 16.7032 20.8496 16.9864 20.8496Z" fill="#C2C2C2"/>
</svg>
