<svg width="142" height="142" viewBox="0 0 142 142" fill="none" xmlns="http://www.w3.org/2000/svg">
<path d="M132.059 64.1675L128.382 49.4585C129.387 49.245 130.142 48.353 130.142 47.2844V44.9129C130.142 39.7637 125.953 35.5747 120.804 35.5747H104.054V30.6829C104.054 28.1491 101.993 26.0879 99.4593 26.0879H14.0813C11.5475 26.0879 9.48626 28.1491 9.48626 30.6829V71.0004C9.48626 72.2282 10.4817 73.2238 11.7097 73.2238C12.9375 73.2238 13.9332 72.2285 13.9332 71.0004V30.6829C13.9332 30.6011 13.9995 30.5348 14.0813 30.5348H99.4591C99.5409 30.5348 99.6072 30.6011 99.6072 30.6829V71.0009C99.6072 72.2287 100.603 73.2244 101.831 73.2244C103.058 73.2244 104.054 72.229 104.054 71.0009V68.4804H130.282C130.284 68.4804 130.286 68.481 130.288 68.481C130.29 68.481 130.292 68.4807 130.294 68.4807C133.522 68.4829 136.262 70.6013 137.203 73.5203H130.29C129.062 73.5203 128.066 74.5157 128.066 75.7438V80.4869C128.066 84.3284 131.191 87.4535 135.033 87.4535H137.553V97.2363H131.739C129.829 91.7218 124.587 87.7497 118.432 87.7497C112.276 87.7497 107.034 91.7218 105.124 97.2363H104.054V80.4867C104.054 79.2589 103.058 78.2632 101.83 78.2632C100.602 78.2632 99.6066 79.2586 99.6066 80.4867V97.2357H53.4766C51.5668 91.7213 46.3247 87.7492 40.1691 87.7492C34.0134 87.7492 28.7711 91.7213 26.8616 97.2357H14.0813C13.9995 97.2357 13.9332 97.1694 13.9332 97.0876V92.1961H23.5678C24.7956 92.1961 25.7913 91.2007 25.7913 89.9726C25.7913 88.7446 24.7959 87.7492 23.5678 87.7492H2.22346C0.995664 87.7492 0 88.7446 0 89.9726C0 91.2007 0.995387 92.1961 2.22346 92.1961H9.48654V97.0876C9.48654 99.6214 11.5478 101.683 14.0816 101.683H26.0917C26.0911 101.732 26.0878 101.781 26.0878 101.831C26.0878 109.595 32.4048 115.912 40.1691 115.912C47.9333 115.912 54.2504 109.595 54.2504 101.831C54.2504 101.781 54.247 101.732 54.2465 101.683H104.354C104.354 101.732 104.35 101.781 104.35 101.831C104.35 109.595 110.667 115.912 118.432 115.912C126.196 115.912 132.513 109.595 132.513 101.831C132.513 101.781 132.51 101.732 132.509 101.683H139.776C141.004 101.683 142 100.687 142 99.4592V75.7432C142 69.888 137.68 65.0231 132.059 64.1675ZM104.054 40.0214H120.804C123.501 40.0214 125.695 42.2157 125.695 44.9129V45.061H104.054V40.0214ZM104.054 64.0338V49.5076H123.811L127.442 64.0338H104.054ZM40.1691 111.466C34.8566 111.466 30.5344 107.144 30.5344 101.831C30.5344 96.5185 34.8566 92.1967 40.1691 92.1967C45.4816 92.1967 49.8037 96.5185 49.8037 101.831C49.8037 107.144 45.4816 111.466 40.1691 111.466ZM118.432 111.466C113.12 111.466 108.798 107.144 108.798 101.831C108.798 96.5185 113.12 92.1967 118.432 92.1967C123.745 92.1967 128.067 96.5185 128.067 101.831C128.067 107.144 123.745 111.466 118.432 111.466ZM137.553 83.0066H135.033C133.644 83.0066 132.513 81.8761 132.513 80.4867V77.9667H137.553V83.0066H137.553Z" fill="white"/>
<path d="M40.1693 97.2363C37.6354 97.2363 35.5742 99.2975 35.5742 101.831C35.5742 104.365 37.6354 106.426 40.1693 106.426C42.7031 106.426 44.7643 104.365 44.7643 101.831C44.7643 99.2975 42.7031 97.2363 40.1693 97.2363Z" fill="white"/>
<path d="M118.432 97.2363C115.898 97.2363 113.837 99.2975 113.837 101.831C113.837 104.365 115.898 106.426 118.432 106.426C120.966 106.426 123.027 104.365 123.027 101.831C123.027 99.2975 120.966 97.2363 118.432 97.2363Z" fill="white"/>
<path d="M92.3439 87.75H59.1414C57.9136 87.75 56.918 88.7454 56.918 89.9735C56.918 91.2016 57.9134 92.197 59.1414 92.197H92.3439C93.5717 92.197 94.5674 91.2016 94.5674 89.9735C94.5674 88.7454 93.572 87.75 92.3439 87.75Z" fill="white"/>
<path d="M35.426 78.2627H6.96663C5.73883 78.2627 4.74316 79.2581 4.74316 80.4862C4.74316 81.7142 5.73855 82.7096 6.96663 82.7096H35.426C36.6538 82.7096 37.6494 81.7142 37.6494 80.4862C37.6494 79.2581 36.6538 78.2627 35.426 78.2627Z" fill="white"/>
<path d="M77.3154 48.0827C76.4473 47.2146 75.0392 47.2146 74.1711 48.0829L54.3988 67.8551L44.1129 57.5692C43.2445 56.7008 41.8367 56.7008 40.9687 57.5692C40.1003 58.4376 40.1003 59.8451 40.9687 60.7135L52.8268 72.5716C53.2608 73.0059 53.8299 73.2228 54.3988 73.2228C54.9676 73.2228 55.537 73.0059 55.9707 72.5716L77.3151 51.2272C78.1835 50.3586 78.1835 48.951 77.3154 48.0827Z" fill="white"/>
</svg>
