<svg width="40" height="40" viewBox="0 0 40 40" fill="none" xmlns="http://www.w3.org/2000/svg">
<path d="M20.0286 25.6719C23.2976 25.6719 25.9477 23.1039 25.9477 19.9361C25.9477 16.7682 23.2976 14.2002 20.0286 14.2002C16.7595 14.2002 14.1094 16.7682 14.1094 19.9361C14.1094 23.1039 16.7595 25.6719 20.0286 25.6719Z" fill="#C1B3A8"/>
<path d="M29.1898 20.2564C29.1898 25.1591 25.0879 29.133 20.0281 29.133C14.9682 29.133 10.8663 25.1591 10.8663 20.2564C10.8663 19.3779 10.9989 18.5292 11.2444 17.7275H8.53711V30.1785C8.53711 30.8234 9.06417 31.35 9.70867 31.35H30.2341C30.879 31.35 31.4065 30.8234 31.4065 30.1785V17.7275H28.8117C29.0568 18.5292 29.1898 19.3779 29.1898 20.2564Z" fill="#C1B3A8"/>
<path d="M26.7343 14.3671H30.0656C30.7957 14.3671 31.3923 13.7705 31.3923 13.0404V9.86417C31.3923 9.13373 30.7957 8.53711 30.0656 8.53711H26.7343C26.0039 8.53711 25.4072 9.13373 25.4072 9.86417V13.0404C25.4068 13.77 26.0039 14.3671 26.7343 14.3671Z" fill="#C1B3A8"/>
<path d="M20 0C8.95427 0 0 8.95427 0 20C0 31.0457 8.95427 40 20 40C31.0457 40 40 31.0457 40 20C40 8.95427 31.0457 0 20 0ZM30.9545 34.738H9.04593C6.9643 34.738 5.2624 33.1973 5.2624 30.9553V9.04552C5.2624 6.80266 6.9643 5.2624 9.04593 5.2624H30.9545C33.0357 5.2624 34.738 6.80266 34.738 9.04552V30.9553C34.738 33.1973 33.0353 34.738 30.9545 34.738Z" fill="#C1B3A8"/>
</svg>
