<svg width="58" height="58" viewBox="0 0 58 58" fill="none" xmlns="http://www.w3.org/2000/svg">
<g clip-path="url(#clip0)">
<path d="M46.0257 10.2146H42.6206C41.6796 10.2146 40.918 10.9761 40.918 11.9172C40.918 12.8582 41.6794 13.6198 42.6206 13.6198H46.0257C46.9667 13.6198 47.7283 12.8584 47.7283 11.9172C47.7282 10.9761 46.9667 10.2146 46.0257 10.2146Z" fill="#DECCC0"/>
<path d="M28.8204 4.34535L27.1179 0.940236C26.694 0.0988978 25.6747 -0.238566 24.8333 0.178761C23.992 0.599373 23.6511 1.62196 24.0719 2.4633L25.7745 5.86841C26.1945 6.70635 27.212 7.05061 28.059 6.62989C28.9001 6.20928 29.241 5.18669 28.8204 4.34535Z" fill="#DECCC0"/>
<path d="M39.9769 0.178985C39.1388 -0.238343 38.1131 0.0992349 37.6924 0.94046L35.9898 4.34558C35.5691 5.18691 35.91 6.20939 36.7512 6.63011C37.6007 7.05197 38.617 6.70375 39.0358 5.86864L40.7384 2.46352C41.159 1.62219 40.8181 0.599597 39.9769 0.178985Z" fill="#DECCC0"/>
<path d="M22.1898 10.2146H18.7846C17.8436 10.2146 17.082 10.9761 17.082 11.9172C17.082 12.8582 17.8435 13.6198 18.7846 13.6198H22.1898C23.1308 13.6198 23.8924 12.8584 23.8924 11.9172C23.8924 10.9761 23.1308 10.2146 22.1898 10.2146Z" fill="#DECCC0"/>
<path d="M11.9749 27.3538H5.16453C4.2243 27.3538 3.46191 28.116 3.46191 29.0564V56.2973C3.46191 57.2375 4.22418 57.9999 5.16453 57.9999H11.9748C12.915 57.9999 13.6774 57.2376 13.6774 56.2973V29.0563C13.6774 28.116 12.9152 27.3538 11.9749 27.3538Z" fill="#DECCC0"/>
<path d="M54.5045 31.8669C54.2042 29.2258 51.7371 27.3538 49.0789 27.3538H35.8052C36.9333 25.3339 37.5388 19.6208 37.5119 17.287C37.4674 13.4239 34.2682 10.3281 30.405 10.3281H29.0001C28.0591 10.3281 27.2975 11.0896 27.2975 12.0307C27.2975 15.9678 25.7645 23.0742 22.8732 25.9656C20.9271 27.9116 19.2635 28.6168 17.082 29.707V55.2539C20.4219 56.3671 24.6625 58.0001 31.1259 58.0001H42.2633C45.933 58.0001 48.7911 54.6013 47.3691 51.0103C49.5356 50.4201 51.1333 48.4332 51.1333 46.0821C51.1333 45.4186 51.0053 44.7836 50.7742 44.1999C54.4251 43.2052 55.769 38.6972 53.235 35.8667C54.1659 34.8266 54.6793 33.404 54.5045 31.8669Z" fill="#DECCC0"/>
</g>
<defs>
<clipPath id="clip0">
<rect width="58" height="58" fill="white"/>
</clipPath>
</defs>
</svg>
