<svg width="102" height="71" viewBox="0 0 102 71" fill="none" xmlns="http://www.w3.org/2000/svg">
<path d="M55.581 17.2396C55.9244 17.7985 55.4624 18.3372 54.9297 18.3262C54.5448 18.3186 54.1463 18.3701 53.7501 18.4875C53.3542 18.6052 52.9943 18.779 52.6791 18.9948C52.2434 19.293 51.5512 19.0976 51.5158 18.4469C51.4526 17.2722 52.0097 16.2436 52.9595 15.9619C53.9091 15.6795 54.9613 16.2298 55.581 17.2396Z" fill="#786354"/>
<path d="M15.7198 19.3464C15.3599 19.2126 14.9668 19.13 14.5536 19.1108C14.1399 19.0913 13.7405 19.1367 13.3694 19.2361C12.8558 19.3739 12.2717 18.9626 12.4645 18.3385C12.8107 17.212 13.692 16.4266 14.6839 16.4732C15.6754 16.5196 16.4747 17.3833 16.7091 18.5376C16.839 19.1766 16.2174 19.5315 15.7198 19.3464Z" fill="#786354"/>
<path d="M0.866112 64.4396C0.292427 63.5689 0.000114441 62.5622 0.000114441 61.5597C0.000114441 58.688 2.29422 56.0886 6.33598 55.8246C6.39294 55.8103 6.45147 55.7993 6.51062 55.7929C11.9148 50.3941 14.3929 37.3174 12.9232 29.46C8.0057 29.0863 4.54702 26.2722 3.25505 21.4679C2.68419 19.3438 3.69698 17.7072 5.79359 17.3185C6.82203 17.1279 7.50495 16.5334 7.8824 15.5014C7.8946 15.4685 7.90774 15.4361 7.92245 15.4044C9.90578 11.1212 13.34 10.5907 15.6166 10.3943C15.6166 10.3861 15.6082 10.369 15.6166 10.3693C16.4398 10.4157 17.4601 10.4123 16.9152 9.82359C15.4617 8.25346 15.2066 7.51169 15.0389 6.94065C14.6693 5.67936 16.0429 4.85556 17.072 5.02111C22.7252 5.93027 28.2674 10.8492 31.1962 17.5179C31.579 18.3895 32.23 19.8847 33.044 21.8045C34.0781 19.3856 36.1832 13.5566 42.2496 10.487C44.9214 9.13456 47.5476 8.70987 50.2921 8.87572C52.5828 9.0117 57.345 9.2931 59.9126 14.9002C59.9912 14.9761 60.6159 15.4919 63.3194 15.774C64.9781 15.9474 66.5161 15.9331 66.5317 15.9328C66.5368 15.9328 66.5418 15.9328 66.5471 15.9328C67.2651 15.9328 67.8519 16.4956 67.8613 17.1968C67.9574 24.4627 64.5951 27.6277 62.0731 28.9777C62.07 28.9795 62.0668 28.982 62.0634 28.9838C60.5448 29.8747 58.6263 30.0844 56.8464 30.0844C55.8809 30.0844 55.0021 30.0235 54.347 29.9594C53.8534 32.9967 52.9349 45.283 59.1793 55.828C63.1873 56.1179 65.4438 58.7173 65.4438 61.5597C65.4438 62.5622 65.1515 63.5689 64.5778 64.4396C64.5778 64.4396 63.161 67 58.8351 67C58.0799 67 46.3552 67 44.7105 67C43.9847 67 43.396 66.4268 43.396 65.7195C43.396 65.0128 43.9847 64.4396 44.7105 64.4396C46.347 64.4396 57.8307 64.4396 59.2689 64.4396C61.7185 64.4396 62.8152 62.9927 62.8152 61.5597C62.8152 59.735 61.1793 58.4469 58.6636 58.3697C57.5099 58.6191 56.1128 59.2566 55.5388 60.8506C55.2981 61.5192 54.547 61.8686 53.8631 61.635C53.1783 61.4009 52.8178 60.6704 53.0582 60.0027C53.6503 58.3582 54.8418 57.1176 56.4884 56.388C50.637 45.977 51.0795 33.9793 51.7174 29.8722C51.8357 29.114 52.1408 28.1631 52.2016 28.0308C52.4394 27.51 53.0159 27.1948 53.6134 27.2908C54.7561 27.4728 57.8658 27.7914 60.0194 27.0881C60.082 27.0673 60.1424 27.046 60.2009 27.0244C62.5567 26.0243 64.1153 24.0585 64.8132 21.2539C63.96 21.0655 62.7238 20.3877 61.9194 18.1755C59.4388 17.7926 58.031 17.084 57.5234 15.9691C56.3112 13.3041 54.5836 12.2215 52.6748 11.7581C51.6873 11.5184 49.1432 11.1828 46.9802 12.5937C46.3746 12.9883 45.8876 13.6346 45.595 14.4602C45.1058 15.8383 45.4594 17.3785 46.5905 18.7965C49.5219 22.4719 50.2617 24.3469 49.9913 26.7853C49.8208 28.3225 48.9607 29.5829 47.5695 30.3341C45.6585 31.3665 43.1553 31.4009 41.2455 30.2524C39.189 29.0158 37.9975 26.8146 37.42 23.1039C37.4188 23.0969 37.4169 23.0905 37.4157 23.0835C37.9152 21.8383 38.707 20.1273 39.6807 18.9356C39.6049 19.9694 39.4513 21.2734 39.7636 22.6536C40.3921 25.4246 40.7908 26.8146 42.3901 27.9469C43.6273 28.8225 45.2629 28.6521 46.2945 28.0948C46.9351 27.7487 47.2991 27.2152 47.3774 26.5103C47.5238 25.1917 47.3723 23.9505 44.5146 20.3676C42.714 18.1103 42.1438 15.2474 43.5146 12.7218C43.1854 12.8858 42.8051 13.102 42.4477 13.3538V13.3532C42.4477 13.3532 40.6146 14.4843 38.6964 16.8913C38.1402 17.5892 36.1904 20.0923 34.4534 25.1713C38.4282 34.7866 44.2413 49.898 44.2413 56.0362C44.2413 62.082 39.1924 67 32.9861 67C26.7801 67 21.7309 62.082 21.7309 56.0362C21.7309 52.713 23.7637 45.6254 27.7723 34.9698C28.6887 32.5351 29.6179 30.1564 30.4892 27.9859L31.8247 31.6884C28.3134 40.6565 24.3605 51.8529 24.3605 56.0362C24.3605 60.6698 28.2298 64.4396 32.9861 64.4396C37.7427 64.4396 41.6124 60.6698 41.6124 56.0362C41.6124 49.5483 34.1363 31.2494 31.6209 25.1999C31.6216 25.1987 31.6225 25.1975 31.6228 25.1963C30.2194 21.821 29.1318 19.3279 28.7791 18.5252C26.9153 14.2803 23.1478 9.69555 18.5583 8.0495C21.9879 11.2492 20.7598 12.9248 19.5047 12.9248C17.8096 12.9248 17.4673 12.9248 16.1064 12.9248C13.9939 13.0944 11.7883 13.3258 10.3396 16.4142C9.77026 17.9276 8.70426 19.0145 7.28366 19.5551C7.59101 20.3066 7.82825 21.5953 6.30125 22.2682C7.45769 24.9277 9.99152 27.4061 15.4805 26.8716C16.2053 26.8003 16.8469 27.3149 16.9186 28.0186C16.9909 28.7225 16.4639 29.3497 15.7415 29.4198C15.6889 29.425 15.6373 29.4277 15.5847 29.4326C16.262 33.5171 16.016 38.8629 14.8977 43.9593C13.7353 49.2556 11.7686 53.6621 9.28046 56.6127C10.6888 57.3603 11.7148 58.5158 12.2503 60.0027C12.5517 60.839 11.9104 61.7073 11.0103 61.7073C10.4679 61.7073 9.95992 61.3777 9.76963 60.8506C9.19876 59.2646 7.81353 58.6262 6.66303 58.3737C1.22884 58.6222 1.46389 64.4396 6.17511 64.4396C8.36875 64.4396 19.1044 64.4396 21.2496 64.4396C21.9753 64.4396 22.5637 65.0128 22.5637 65.7195C22.5637 66.4268 21.9753 67 21.2496 67C19.1025 67 10.3327 67 6.17511 67C2.01786 67 0.866112 64.4396 0.866112 64.4396Z" fill="#786354"/>
<path opacity="0.7" d="M75.1789 26.05C75.1122 26.0333 75.0039 26.0167 74.8539 26C74.7039 25.9833 74.5789 25.9417 74.4789 25.875C74.2289 25.7083 74.1289 25.425 74.1789 25.025L74.2039 24.475C74.2706 23.575 74.3039 22.9 74.3039 22.45C74.3039 19.8333 74.2789 17.2 74.2289 14.55C74.2289 13.1833 74.1872 11.7333 74.1039 10.2C74.0872 9.93333 74.1456 9.70833 74.2789 9.525C74.4289 9.34166 74.6122 9.25 74.8289 9.25C75.0289 9.25 75.2289 9.34166 75.4289 9.525C75.6456 9.70833 75.7456 9.925 75.7289 10.175C75.6122 10.675 75.5539 11.675 75.5539 13.175V15.175C75.5539 15.5417 75.5706 16.125 75.6039 16.925C75.6539 16.8583 75.8122 16.55 76.0789 16C76.1122 15.9333 76.1706 15.8333 76.2539 15.7C76.3372 15.55 76.3956 15.4 76.4289 15.25C76.9789 13.5833 77.4289 12.3 77.7789 11.4C77.9289 10.9167 78.1289 10.5083 78.3789 10.175C78.6289 9.825 78.9706 9.58333 79.4039 9.45C79.5539 9.4 79.7539 9.41666 80.0039 9.5C80.2706 9.58333 80.4456 9.68333 80.5289 9.8C80.6289 9.91666 80.6789 10.0583 80.6789 10.225C80.6789 10.3917 80.6206 10.5417 80.5039 10.675C80.4039 10.8083 80.2706 10.8917 80.1039 10.925C79.6872 10.9917 79.3622 11.1417 79.1289 11.375C78.8956 11.6083 78.7206 11.8583 78.6039 12.125C78.5039 12.375 78.3789 12.7583 78.2289 13.275L77.2289 15.725C77.1789 15.8417 77.1039 16.0417 77.0039 16.325C76.9206 16.6083 76.8372 16.825 76.7539 16.975C76.7206 17.025 76.6706 17.075 76.6039 17.125C76.5372 17.175 76.4789 17.225 76.4289 17.275C76.5456 17.1917 76.6956 17.2167 76.8789 17.35C77.0789 17.4833 77.2789 17.6667 77.4789 17.9C77.6122 18.1667 77.7039 18.4583 77.7539 18.775C77.8206 19.0917 77.8622 19.275 77.8789 19.325C77.9122 19.5917 77.9456 19.7917 77.9789 19.925C78.1789 20.4583 78.3206 20.95 78.4039 21.4C78.4872 21.8333 78.5456 22.35 78.5789 22.95C78.6289 23.55 78.7956 24.075 79.0789 24.525C79.1622 24.5417 79.2539 24.5583 79.3539 24.575C79.4706 24.5917 79.5956 24.6083 79.7289 24.625C79.9956 24.6417 80.1706 24.8083 80.2539 25.125C80.2706 25.1583 80.2789 25.2167 80.2789 25.3C80.2789 25.4833 80.1956 25.6583 80.0289 25.825C79.7789 26.075 79.4622 26.2 79.0789 26.2C78.7956 26.2 78.5206 26.125 78.2539 25.975C78.0039 25.825 77.8206 25.625 77.7039 25.375C77.6039 25.2083 77.5206 24.9833 77.4539 24.7C77.3372 23.9833 77.2372 23.2583 77.1539 22.525C77.0872 21.5083 77.0122 20.7417 76.9289 20.225C76.8622 19.6917 76.7039 19.1833 76.4539 18.7C76.3872 18.5833 76.3206 18.5 76.2539 18.45C76.1872 18.3833 76.0956 18.35 75.9789 18.35C75.8789 18.35 75.7539 18.375 75.6039 18.425C75.5706 19.625 75.5539 20.7917 75.5539 21.925C75.5539 22.6417 75.5872 23.7333 75.6539 25.2C75.6706 25.3833 75.6372 25.5333 75.5539 25.65C75.4872 25.75 75.3622 25.8833 75.1789 26.05ZM85.2576 26.475C84.8243 26.475 84.4243 26.3333 84.0576 26.05C83.6909 25.7833 83.3909 25.4167 83.1576 24.95C82.6743 23.9333 82.3743 22.825 82.2576 21.625C82.1076 20.4917 82.0326 19.4 82.0326 18.35C82.0326 18.15 82.0409 17.9833 82.0576 17.85V17.4C82.0576 17.3167 82.0493 17.275 82.0326 17.275V16.825L82.0576 15.075C82.0743 14.5417 82.1409 13.6917 82.2576 12.525C82.3409 11.725 82.5326 10.95 82.8326 10.2C82.9493 9.86667 83.0993 9.61666 83.2826 9.45C83.4659 9.26666 83.6743 9.175 83.9076 9.175C84.5743 9.175 85.1743 9.3 85.7076 9.55C86.2409 9.78333 86.6909 10.1167 87.0576 10.55C87.3909 10.9667 87.6743 11.4833 87.9076 12.1C88.1409 12.7 88.3076 13.3417 88.4076 14.025C88.5076 14.725 88.5576 15.4667 88.5576 16.25V16.45C88.5576 16.9667 88.5659 17.4333 88.5826 17.85L88.6076 19.275C88.6076 24.075 87.4909 26.475 85.2576 26.475ZM85.1576 25.425C85.4576 25.425 85.7326 25.3083 85.9826 25.075C86.2326 24.825 86.4243 24.4917 86.5576 24.075C86.8743 23.225 87.0659 22.3083 87.1326 21.325C87.2159 20.475 87.2576 19.7417 87.2576 19.125C87.2576 18.375 87.1993 17.3917 87.0826 16.175C86.9826 14.8917 86.9326 13.9333 86.9326 13.3V12.85C86.8993 12.2167 86.6826 11.6667 86.2826 11.2C85.8993 10.7333 85.4243 10.5 84.8576 10.5C84.2909 10.5 83.9159 10.825 83.7326 11.475C83.5659 11.9917 83.4826 12.6583 83.4826 13.475C83.4826 13.7917 83.4909 14.0583 83.5076 14.275V14.95L83.4576 16.1C83.4243 16.45 83.4076 16.8333 83.4076 17.25C83.4076 18.15 83.4326 19.0417 83.4826 19.925C83.5493 21.175 83.7159 22.3917 83.9826 23.575C84.2493 24.8083 84.6409 25.425 85.1576 25.425ZM92.7414 25.6L92.7164 24.625C92.6997 24.3417 92.6914 24.025 92.6914 23.675L92.7164 22.825C92.6664 22.6417 92.5414 20.8167 92.3414 17.35C92.1414 13.8833 92.0247 11.6583 91.9914 10.675C91.0247 10.6417 90.4081 10.5417 90.1414 10.375C89.9581 10.2417 89.8664 10.0917 89.8664 9.925C89.8664 9.79167 89.9497 9.675 90.1164 9.575C90.2997 9.45833 90.4831 9.4 90.6664 9.4C91.1331 9.4 91.6997 9.43333 92.3664 9.5C92.9997 9.58333 93.5664 9.625 94.0664 9.625H94.2664H94.4664C94.9831 9.625 95.2414 9.825 95.2414 10.225C95.2414 10.425 95.1581 10.5917 94.9914 10.725C94.8247 10.8417 94.6331 10.9 94.4164 10.9C94.2664 10.9 94.0497 10.875 93.7664 10.825L93.2664 10.725L93.2414 10.85L93.2164 10.975C93.2164 12.4583 93.3581 14.825 93.6414 18.075C93.9081 21.125 94.0414 23.4917 94.0414 25.175C94.0414 25.375 93.9497 25.55 93.7664 25.7C93.5997 25.85 93.4081 25.925 93.1914 25.925L92.7414 25.6Z" fill="black"/>
<path opacity="0.7" d="M79.0039 64.975C78.7872 65.0083 78.6039 64.9583 78.4539 64.825C78.3039 64.675 78.2289 64.475 78.2289 64.225C78.1789 63.425 78.1539 62.6333 78.1539 61.85C78.1539 60.7833 78.1789 59.725 78.2289 58.675C78.2622 57.6083 78.2789 56.825 78.2789 56.325C78.0956 55.1417 77.9872 53.2333 77.9539 50.6C77.9539 49.9833 77.9456 49.4833 77.9289 49.1C77.0789 49.1 76.4622 49.0833 76.0789 49.05H75.9289C75.6789 49.05 75.5456 49.1833 75.5289 49.45L75.5039 51.25C75.5039 52.1167 75.5289 52.6417 75.5789 52.825C75.6122 53.025 75.6289 53.1583 75.6289 53.225C75.6289 53.3583 75.6122 53.5583 75.5789 53.825C75.5456 54.0917 75.5289 54.2917 75.5289 54.425C75.5289 54.675 75.5706 54.8917 75.6539 55.075C75.7206 55.225 75.7456 55.4333 75.7289 55.7C75.7289 55.9667 75.7289 56.1667 75.7289 56.3C75.7456 56.8167 75.7372 57.575 75.7039 58.575C75.6706 59.375 75.6539 59.9667 75.6539 60.35C75.6539 60.8333 75.6706 61.3833 75.7039 62C75.7372 62.6 75.7622 63.025 75.7789 63.275L75.8289 63.975C75.8456 64.2417 75.7872 64.4583 75.6539 64.625C75.5372 64.775 75.3622 64.85 75.1289 64.85C75.0456 64.85 74.9372 64.8333 74.8039 64.8C74.6539 64.75 74.5539 64.6667 74.5039 64.55C74.4539 64.4333 74.4206 64.2833 74.4039 64.1L74.3289 62L74.3539 58.975C74.3206 57.175 74.3039 55.8333 74.3039 54.95L74.2789 52.925C74.2622 51.975 74.2206 50.9667 74.1539 49.9L74.1039 48.875V48.725C74.1039 48.5583 74.1372 48.4417 74.2039 48.375C74.2706 48.2917 74.3956 48.225 74.5789 48.175C74.9122 48.0917 75.2122 48.05 75.4789 48.05C75.6289 48.05 75.7372 48.0583 75.8039 48.075C75.9372 48.075 76.1372 48.0917 76.4039 48.125C76.7706 48.1583 77.0622 48.175 77.2789 48.175C77.5956 48.175 77.8872 48.1417 78.1539 48.075C78.3372 48.025 78.5706 48.0667 78.8539 48.2C79.1372 48.3167 79.2956 48.4917 79.3289 48.725C79.3622 48.9583 79.3789 49.1417 79.3789 49.275C79.3789 49.4083 79.3706 49.5083 79.3539 49.575C79.2872 49.775 79.2539 50.0167 79.2539 50.3C79.2539 50.45 79.2622 50.6167 79.2789 50.8C79.2956 50.9833 79.3039 51.175 79.3039 51.375C79.3039 51.5417 79.2956 51.675 79.2789 51.775C79.2622 51.925 79.2539 52.1667 79.2539 52.5C79.2539 53.05 79.3039 53.825 79.4039 54.825L79.4789 55.5C79.4956 55.65 79.5039 55.875 79.5039 56.175C79.5039 56.525 79.4956 56.7833 79.4789 56.95C79.4789 57.0833 79.4706 57.25 79.4539 57.45C79.4539 57.6333 79.4622 57.8583 79.4789 58.125C79.4622 58.5083 79.4706 59.0833 79.5039 59.85L79.5289 60.4L79.6789 64.325C79.6789 64.5083 79.6289 64.6583 79.5289 64.775C79.4456 64.875 79.2706 64.9417 79.0039 64.975ZM83.8244 65.325C83.6077 65.325 83.4077 65.25 83.2244 65.1C83.0577 64.95 82.9661 64.7667 82.9494 64.55V63.9V63.4C82.9327 63.25 82.9244 63.075 82.9244 62.875C82.9244 62.525 82.8994 61.9917 82.8494 61.275L82.7994 59.675C82.7994 58.8583 82.8244 57.6417 82.8744 56.025C82.9411 54.575 82.9744 53.3583 82.9744 52.375C82.9744 52.1417 82.9494 51.7917 82.8994 51.325C82.8494 50.8417 82.8244 50.4917 82.8244 50.275C82.8244 49.0917 83.1744 48.5 83.8744 48.5C84.4244 48.5 85.0577 48.6083 85.7744 48.825C86.5077 49.0417 86.8744 49.3 86.8744 49.6C86.8744 49.7667 86.7994 49.925 86.6494 50.075C86.5161 50.2083 86.3494 50.3167 86.1494 50.4C85.4494 50.15 84.8161 49.9833 84.2494 49.9C84.2661 50.15 84.2744 50.5083 84.2744 50.975C84.2744 51.6417 84.2661 52.2417 84.2494 52.775C84.1994 53.575 84.1744 54.175 84.1744 54.575L84.2494 54.975L84.6494 54.95C84.7827 54.9333 84.9494 54.925 85.1494 54.925C85.9494 54.925 86.3494 55.1583 86.3494 55.625C86.3494 55.8083 86.2744 55.9667 86.1244 56.1C85.9744 56.2167 85.7827 56.275 85.5494 56.275C85.2494 56.275 85.0161 56.2583 84.8494 56.225H84.2244C84.2577 56.6583 84.2744 57.2917 84.2744 58.125C84.2744 58.9583 84.2661 59.7083 84.2494 60.375C84.1994 61.3917 84.1744 62.15 84.1744 62.65C84.1744 63.5833 84.1911 64.05 84.2244 64.05L85.0494 64.025C85.3327 64.0083 85.6744 64 86.0744 64C86.7077 64 87.0244 64.2 87.0244 64.6C87.0244 64.8333 86.9161 65.0083 86.6994 65.125C86.4994 65.2583 86.2494 65.325 85.9494 65.325H83.8244ZM82.6244 47.05C82.4077 47.05 82.2077 46.9583 82.0244 46.775C81.8577 46.5917 81.7744 46.3833 81.7744 46.15C81.7744 45.9 81.8661 45.6833 82.0494 45.5C82.2494 45.3 82.4744 45.2 82.7244 45.2C82.9577 45.2 83.1577 45.3 83.3244 45.5C83.5077 45.6833 83.5994 45.8917 83.5994 46.125C83.5994 46.3917 83.5077 46.6167 83.3244 46.8C83.1411 46.9667 82.9077 47.05 82.6244 47.05ZM86.6494 47.175C86.4327 47.175 86.2327 47.0833 86.0494 46.9C85.8827 46.7167 85.7994 46.5083 85.7994 46.275C85.7994 46.025 85.8911 45.8083 86.0744 45.625C86.2744 45.425 86.4994 45.325 86.7494 45.325C86.9827 45.325 87.1911 45.425 87.3744 45.625C87.5577 45.8083 87.6494 46.0167 87.6494 46.25C87.6494 46.5167 87.5494 46.7417 87.3494 46.925C87.1661 47.0917 86.9327 47.175 86.6494 47.175ZM93.1289 65.35C92.7622 65.35 92.3706 65.2917 91.9539 65.175C91.5539 65.075 91.2456 64.9583 91.0289 64.825C89.9122 64.1083 89.3539 62.15 89.3539 58.95V58.275V57.5V56.9C89.3539 56.2333 89.3622 55.6417 89.3789 55.125C89.3956 54.5917 89.4289 54.0167 89.4789 53.4C89.5289 52.75 89.6039 52.225 89.7039 51.825C89.8039 51.4083 89.9706 50.9417 90.2039 50.425C90.4039 49.9417 90.6456 49.5667 90.9289 49.3C91.2289 49.0333 91.6122 48.8083 92.0789 48.625C92.4956 48.4417 93.0122 48.35 93.6289 48.35C93.8789 48.35 94.0706 48.4083 94.2039 48.525C94.3372 48.6417 94.4039 48.7917 94.4039 48.975C94.4039 49.1417 94.3456 49.2917 94.2289 49.425C94.1289 49.5583 94.0039 49.6333 93.8539 49.65H92.6789C92.3456 49.65 92.0539 49.8583 91.8039 50.275C91.5539 50.6917 91.3789 51.2333 91.2789 51.9C91.0622 53.1333 90.9539 54.1333 90.9539 54.9V55.025L90.9039 57.425C90.8706 58.1417 90.8539 58.95 90.8539 59.85C90.8539 60.4833 90.8789 61 90.9289 61.4C91.0122 62 91.1539 62.5 91.3539 62.9C91.5539 63.35 91.8956 63.675 92.3789 63.875C92.6289 63.975 92.9039 64.025 93.2039 64.025C93.3872 64.025 93.5706 63.9583 93.7539 63.825C93.9706 63.825 94.1456 63.875 94.2789 63.975C94.4289 64.0583 94.5039 64.1917 94.5039 64.375C94.5039 65.025 94.0456 65.35 93.1289 65.35Z" fill="black"/>
<path d="M85.1089 43.091C85.0182 43.1137 84.9502 43.125 84.9049 43.125C84.7689 43.125 84.6726 43.04 84.6159 42.87C84.5706 42.734 84.5479 42.564 84.5479 42.36L84.5649 41.187C84.5649 41.119 84.5592 41.0567 84.5479 41C84.5366 40.9433 84.5252 40.8867 84.5139 40.83H82.5589C82.6722 40.83 82.4002 40.8867 81.7429 41C81.0969 41.102 80.5926 41.17 80.2299 41.204L79.4649 41.272L78.6149 41.357C78.6149 41.459 78.6149 41.5837 78.6149 41.731C78.6262 41.8783 78.6262 42.054 78.6149 42.258V42.343C78.6149 42.5243 78.5696 42.6603 78.4789 42.751C78.3882 42.8417 78.3032 42.887 78.2239 42.887C78.1786 42.887 78.1106 42.8643 78.0199 42.819C77.8159 42.6717 77.7026 42.4677 77.6799 42.207L77.6289 40.966C77.6062 40.524 77.7876 40.303 78.1729 40.303C78.3882 40.2917 78.5582 40.235 78.6829 40.133C78.8076 40.031 78.9549 39.8723 79.1249 39.657C79.2949 39.4303 79.4252 39.181 79.5159 38.909C79.6179 38.6257 79.7142 38.2857 79.8049 37.889C79.9069 37.4583 79.9806 37.039 80.0259 36.631C80.0712 36.223 80.1279 35.6393 80.1959 34.88C80.2979 33.69 80.3489 32.4943 80.3489 31.293L80.3319 30.341C80.3319 30.1257 80.3942 29.95 80.5189 29.814C80.6436 29.6667 80.8136 29.593 81.0289 29.593C81.0969 29.593 81.1479 29.5987 81.1819 29.61C81.7032 29.7007 82.1282 29.7573 82.4569 29.78H82.5419C82.6892 29.78 82.7742 29.7517 82.7969 29.695C82.8989 29.559 83.0236 29.491 83.1709 29.491C83.2729 29.491 83.3636 29.5137 83.4429 29.559C83.6242 29.627 83.7432 29.797 83.7999 30.069L83.7149 32.976C83.7149 34.5513 83.7206 35.73 83.7319 36.512C83.7319 36.92 83.7432 37.5433 83.7659 38.382L83.7829 39.317C83.7829 39.4077 83.7886 39.4927 83.7999 39.572C83.8112 39.6513 83.8226 39.7307 83.8339 39.81C84.0606 39.8327 84.2306 39.844 84.3439 39.844C84.4346 39.844 84.5026 39.8383 84.5479 39.827C84.7972 39.793 85.0182 39.8553 85.2109 40.014C85.4149 40.1613 85.5169 40.354 85.5169 40.592C85.5169 40.898 85.4942 41.357 85.4489 41.969C85.4489 42.1277 85.4376 42.3543 85.4149 42.649C85.3922 42.887 85.2902 43.0343 85.1089 43.091ZM80.2129 40.388C80.8476 40.3313 81.3462 40.2803 81.7089 40.235C82.0829 40.1783 82.4512 40.0933 82.8139 39.98C82.9272 38.6087 82.9839 37.141 82.9839 35.577C82.9839 34.1263 82.9272 32.534 82.8139 30.8C82.5192 30.7887 81.9696 30.7603 81.1649 30.715L81.1479 31.514C81.0572 33.2593 80.9949 34.5627 80.9609 35.424C80.9156 36.716 80.6946 37.9853 80.2979 39.232C80.2752 39.3 80.2242 39.47 80.1449 39.742C80.0769 40.0027 79.9692 40.2293 79.8219 40.422L80.2129 40.388ZM89.9006 41.153C89.64 41.153 89.4473 41.1133 89.3226 41.034C89.198 40.9547 89.1356 40.8073 89.1356 40.592C89.1356 40.252 89.079 39.674 88.9656 38.858L88.8976 38.501L87.2146 38.246C87.1466 38.5067 87.0503 39.0337 86.9256 39.827C86.8576 40.3823 86.75 40.7507 86.6026 40.932C86.5233 41.034 86.41 41.085 86.2626 41.085C86.1266 41.085 86.002 41.0453 85.8886 40.966C85.7753 40.8753 85.7186 40.7677 85.7186 40.643L85.7526 40.558L85.7696 40.49C86.5176 37.5773 87.0843 34.7043 87.4696 31.871C87.4696 31.8257 87.4753 31.752 87.4866 31.65C87.498 31.5367 87.5093 31.378 87.5206 31.174C87.5546 30.7547 87.5886 30.4203 87.6226 30.171C87.668 29.9217 87.736 29.7347 87.8266 29.61H88.4046C88.5633 29.61 88.6993 29.6497 88.8126 29.729C88.926 29.797 88.9826 29.899 88.9826 30.035C88.9826 30.8963 89.1016 32.177 89.3396 33.877C89.5663 35.6223 89.6796 36.8463 89.6796 37.549C89.6796 37.617 89.708 37.7927 89.7646 38.076C89.8213 38.3367 89.8496 38.5067 89.8496 38.586C89.8496 38.6653 89.9063 39.0053 90.0196 39.606C90.1216 40.15 90.1726 40.5013 90.1726 40.66V40.677C90.1726 40.9263 90.082 41.085 89.9006 41.153ZM88.7786 37.889C88.7446 37.719 88.7276 37.5093 88.7276 37.26C88.7276 36.24 88.637 34.9367 88.4556 33.35L88.2856 31.582C87.7983 34.2453 87.464 36.257 87.2826 37.617C87.4526 37.7303 87.9513 37.821 88.7786 37.889Z" fill="#786354"/>
</svg>
