<svg width="128" height="70" viewBox="0 0 128 70" fill="none" xmlns="http://www.w3.org/2000/svg">
<path d="M55.3686 15.2813C55.7106 15.8381 55.2504 16.3747 54.7197 16.3638C54.3362 16.3562 53.9393 16.4076 53.5446 16.5245C53.1502 16.6417 52.7917 16.8148 52.4777 17.0299C52.0437 17.3269 51.354 17.1322 51.3188 16.4841C51.2558 15.3138 51.8108 14.2891 52.757 14.0084C53.703 13.7272 54.7512 14.2754 55.3686 15.2813Z" fill="#786354"/>
<path d="M15.6592 17.3803C15.3006 17.247 14.909 17.1647 14.4974 17.1455C14.0853 17.1261 13.6874 17.1714 13.3176 17.2704C12.806 17.4076 12.2242 16.9979 12.4163 16.3762C12.7611 15.2539 13.6391 14.4716 14.6272 14.518C15.6149 14.5642 16.4112 15.4246 16.6447 16.5745C16.7741 17.2111 16.1549 17.5647 15.6592 17.3803Z" fill="#786354"/>
<path d="M0.862556 62.3024C0.291054 61.4349 -0.000152588 60.432 -0.000152588 59.4334C-0.000152588 56.5726 2.28525 53.9831 6.31167 53.72C6.36842 53.7058 6.42672 53.6948 6.48565 53.6884C11.8693 48.3101 14.338 35.2831 12.8739 27.4555C7.97505 27.0832 4.5295 24.2798 3.24243 19.4937C2.67374 17.3777 3.68268 15.7473 5.77134 15.3601C6.79588 15.1702 7.4762 14.578 7.85222 13.5499C7.86438 13.5171 7.87747 13.4849 7.89212 13.4533C9.86792 9.18626 13.2892 8.65778 15.5571 8.46218C15.5571 8.45398 15.5487 8.43698 15.5571 8.43728C16.3771 8.48344 17.3935 8.4801 16.8507 7.89361C15.4028 6.32943 15.1487 5.59048 14.9815 5.02161C14.6133 3.7651 15.9818 2.94443 17.0069 3.10936C22.6387 4.01506 28.1599 8.91534 31.0776 15.5587C31.4589 16.427 32.1074 17.9165 32.9184 19.829C33.9485 17.4193 36.0456 11.6124 42.089 8.55451C44.7507 7.2072 47.3669 6.78411 50.101 6.94934C52.3829 7.0848 57.1271 7.36513 59.685 12.9509C59.7633 13.0265 60.3856 13.5404 63.0788 13.8214C64.7313 13.9942 66.2634 13.9799 66.279 13.9796C66.284 13.9796 66.289 13.9796 66.2943 13.9796C67.0095 13.9796 67.5941 14.5403 67.6035 15.2389C67.6992 22.4772 64.3497 25.6302 61.8373 26.975C61.8341 26.9769 61.831 26.9793 61.8276 26.9811C60.3148 27.8686 58.4036 28.0776 56.6304 28.0776C55.6686 28.0776 54.7931 28.0168 54.1405 27.953C53.6488 30.9787 52.7337 43.2185 58.9545 53.7234C62.9472 54.0122 65.1952 56.6018 65.1952 59.4334C65.1952 60.432 64.904 61.4349 64.3325 62.3024C64.3325 62.3024 62.921 64.853 58.6115 64.853C57.8592 64.853 46.179 64.853 44.5405 64.853C43.8175 64.853 43.231 64.282 43.231 63.5774C43.231 62.8734 43.8175 62.3024 44.5405 62.3024C46.1709 62.3024 57.611 62.3024 59.0437 62.3024C61.484 62.3024 62.5765 60.8609 62.5765 59.4334C62.5765 57.6156 60.9468 56.3324 58.4407 56.2555C57.2914 56.504 55.8996 57.1391 55.3278 58.7269C55.088 59.393 54.3397 59.7411 53.6585 59.5084C52.9763 59.2751 52.6171 58.5474 52.8565 57.8823C53.4464 56.244 54.6334 55.0081 56.2737 54.2813C50.4446 43.9098 50.8854 31.9576 51.5208 27.8662C51.6387 27.1108 51.9427 26.1635 52.0032 26.0317C52.2401 25.5129 52.8145 25.1989 53.4097 25.2945C54.548 25.4759 57.6459 25.7933 59.7913 25.0926C59.8537 25.0719 59.9138 25.0507 59.9722 25.0291C62.319 24.0329 63.8717 22.0745 64.567 19.2805C63.717 19.0928 62.4855 18.4176 61.6842 16.2138C59.213 15.8323 57.8105 15.1265 57.3048 14.0158C56.0973 11.3609 54.3762 10.2824 52.4746 9.82074C51.4909 9.58202 48.9564 9.24761 46.8016 10.6532C46.1983 11.0463 45.7132 11.6902 45.4217 12.5126C44.9343 13.8855 45.2867 15.4199 46.4135 16.8325C49.3337 20.4939 50.0707 22.3618 49.8013 24.791C49.6314 26.3223 48.7746 27.5779 47.3887 28.3263C45.485 29.3547 42.9913 29.389 41.0888 28.2449C39.04 27.013 37.853 24.8201 37.2778 21.1235C37.2765 21.1165 37.2747 21.1101 37.2734 21.1032C37.771 19.8628 38.5598 18.1583 39.5298 16.971C39.4544 18.0009 39.3013 19.3 39.6124 20.6749C40.2385 23.4355 40.6357 24.8201 42.229 25.9482C43.4615 26.8205 45.0909 26.6507 46.1185 26.0955C46.7567 25.7507 47.1193 25.2192 47.1973 24.517C47.3432 23.2034 47.1923 21.9669 44.3454 18.3976C42.5517 16.1488 41.9836 13.2969 43.3492 10.7808C43.0212 10.9442 42.6424 11.1595 42.2863 11.4104V11.4098C42.2863 11.4098 40.4602 12.5366 38.5492 14.9345C37.9952 15.6298 36.0528 18.1233 34.3223 23.1831C38.282 32.7619 44.0732 47.816 44.0732 53.9308C44.0732 59.9537 39.0434 64.853 32.8607 64.853C26.6782 64.853 21.6482 59.9537 21.6482 53.9308C21.6482 50.6202 23.6732 43.5596 27.6666 32.9444C28.5795 30.5189 29.5052 28.1492 30.3732 25.987L31.7036 29.6755C28.2057 38.6095 24.2678 49.7634 24.2678 53.9308C24.2678 58.5468 28.1224 62.3024 32.8607 62.3024C37.5992 62.3024 41.4542 58.5468 41.4542 53.9308C41.4542 47.4676 34.0065 29.2381 31.5007 23.2116C31.5013 23.2104 31.5022 23.2092 31.5025 23.208C30.1045 19.8454 29.021 17.3619 28.6696 16.5622C26.8129 12.3334 23.0596 7.76605 18.4876 6.12624C21.9042 9.31382 20.6807 10.9831 19.4304 10.9831C17.7418 10.9831 17.4007 10.9831 16.045 10.9831C13.9405 11.152 11.7433 11.3825 10.3001 14.4592C9.73291 15.9669 8.67096 17.0497 7.25576 17.5882C7.56193 18.3368 7.79828 19.6207 6.27707 20.291C7.42912 22.9404 9.95334 25.4094 15.4215 24.8769C16.1436 24.8059 16.7827 25.3185 16.8541 26.0195C16.9262 26.7208 16.4011 27.3456 15.6815 27.4154C15.6291 27.4206 15.5777 27.4233 15.5253 27.4282C16.2 31.4972 15.9549 36.8227 14.8409 41.8997C13.683 47.176 11.7237 51.5657 9.24497 54.5052C10.648 55.2499 11.67 56.401 12.2035 57.8823C12.5038 58.7154 11.8649 59.5804 10.9682 59.5804C10.4279 59.5804 9.92186 59.2521 9.73229 58.7269C9.16359 57.147 7.78361 56.511 6.63748 56.2595C1.22392 56.507 1.45808 62.3024 6.15141 62.3024C8.33673 62.3024 19.0317 62.3024 21.1686 62.3024C21.8917 62.3024 22.4779 62.8734 22.4779 63.5774C22.4779 64.282 21.8917 64.853 21.1686 64.853C19.0298 64.853 10.2932 64.853 6.15141 64.853C2.00993 64.853 0.862556 62.3024 0.862556 62.3024Z" fill="#786354"/>
<path opacity="0.7" d="M79.6879 31.51C79.1679 31.51 78.7179 31.31 78.3379 30.91C77.9779 30.51 77.7779 30.02 77.7379 29.44C77.6179 28.6 77.5379 27.25 77.4979 25.39L77.4379 23.53C77.4379 23.01 77.2779 22.51 76.9579 22.03C76.6379 21.53 76.2279 21.24 75.7279 21.16C75.8679 25.32 75.9379 28.4 75.9379 30.4C75.9379 30.96 75.7379 31.24 75.3379 31.24C75.1779 31.24 75.0179 31.2 74.8579 31.12C74.4779 30.94 74.3179 30.65 74.3779 30.25C74.5379 29.07 74.6179 27.9 74.6179 26.74C74.6179 25.9 74.5879 25.02 74.5279 24.1C74.5079 23.66 74.4979 22.99 74.4979 22.09C74.4779 21.81 74.4679 21.37 74.4679 20.77C74.3879 17.49 74.2979 15.02 74.1979 13.36C74.1379 12.36 73.9879 11.08 73.7479 9.52C73.7279 9.44 73.7179 9.32 73.7179 9.16C73.7179 8.54 73.9779 8.18 74.4979 8.08C74.7979 8.02 75.0379 8.11 75.2179 8.35C75.4179 8.57 75.5279 8.86 75.5479 9.22C75.5679 9.48 75.5879 9.79 75.6079 10.15C75.6279 10.49 75.6379 10.76 75.6379 10.96L75.6679 11.95C75.7079 13.11 75.7279 13.96 75.7279 14.5V19.84C75.9079 19.42 76.1279 18.77 76.3879 17.89C76.6479 17.01 76.8479 16.26 76.9879 15.64C77.0479 15.32 77.1079 14.93 77.1679 14.47C77.2479 14.01 77.3079 13.66 77.3479 13.42C77.4879 12.14 77.6679 11.11 77.8879 10.33C78.1479 9.41 78.6379 8.74 79.3579 8.32C79.6579 8.14 79.9079 8.05 80.1079 8.05C80.2479 8.05 80.4379 8.1 80.6779 8.2C80.9979 8.34 81.1579 8.64 81.1579 9.1C81.1579 9.44 80.9479 9.66 80.5279 9.76C79.7279 9.9 79.2079 10.43 78.9679 11.35C78.8279 11.91 78.6979 12.52 78.5779 13.18C78.4379 14.06 78.3179 14.63 78.2179 14.89C77.8779 15.93 77.6879 16.77 77.6479 17.41C77.5879 17.95 77.4979 18.43 77.3779 18.85C77.2579 19.25 77.0679 19.59 76.8079 19.87C77.3079 19.95 77.7379 20.3 78.0979 20.92C78.4579 21.54 78.6879 22.35 78.7879 23.35C78.8679 24.05 78.9979 25.57 79.1779 27.91L79.2379 28.57C79.2979 29.07 79.5379 29.35 79.9579 29.41C80.2779 29.51 80.5079 29.64 80.6479 29.8C80.7879 29.94 80.8579 30.14 80.8579 30.4C80.8579 30.72 80.7479 30.98 80.5279 31.18C80.3079 31.4 80.0279 31.51 79.6879 31.51ZM87.7652 31.84C87.2252 31.84 86.7352 31.66 86.2952 31.3C85.8552 30.94 85.4752 30.45 85.1552 29.83C84.5752 28.75 84.1452 27.27 83.8652 25.39C83.6652 24.09 83.5152 22.59 83.4152 20.89L83.3852 19.3V17.68C83.3652 17.16 83.3552 16.53 83.3552 15.79C83.3552 14.59 83.4052 13.53 83.5052 12.61C83.5852 11.65 83.7852 10.7 84.1052 9.76C84.4252 8.94 84.8852 8.36 85.4852 8.02C85.8452 7.86 86.2052 7.78 86.5652 7.78C87.6252 7.78 88.4652 8.2 89.0852 9.04C89.7652 9.98 90.2152 11.03 90.4352 12.19C90.7552 13.59 90.9352 14.93 90.9752 16.21C91.0552 17.63 91.0952 18.97 91.0952 20.23V21.94C91.0952 22.28 91.0452 22.92 90.9452 23.86C90.8652 24.6 90.8252 25.23 90.8252 25.75V25.87C90.7052 26.43 90.6452 27.09 90.6452 27.85C90.6452 28.41 90.5252 28.99 90.2852 29.59C90.0452 30.19 89.7052 30.7 89.2652 31.12C88.8252 31.6 88.3252 31.84 87.7652 31.84ZM87.8252 30.19C88.2252 30.19 88.5652 29.82 88.8452 29.08C89.0852 28.42 89.2552 27.62 89.3552 26.68C89.4752 25.72 89.5752 24.64 89.6552 23.44C89.6952 22.92 89.7152 22.25 89.7152 21.43L89.6852 18.67C89.6452 17.59 89.5252 16.24 89.3252 14.62C89.1652 13.24 88.8652 12.02 88.4252 10.96C88.2252 10.46 87.9752 10.07 87.6752 9.79C87.3752 9.51 87.0552 9.37 86.7152 9.37C86.2152 9.37 85.8452 9.76 85.6052 10.54C85.3052 11.36 85.1052 12.26 85.0052 13.24C84.8852 14.3 84.8152 15.31 84.7952 16.27L84.7652 17.26C84.7452 17.54 84.7352 17.92 84.7352 18.4V18.52C84.7352 19.86 84.8752 21.51 85.1552 23.47C85.4752 26.13 85.9452 28.02 86.5652 29.14C86.9652 29.84 87.3852 30.19 87.8252 30.19ZM96.7492 31.21C96.4492 31.21 96.2092 31.07 96.0292 30.79C95.8692 30.49 95.7892 30.13 95.7892 29.71C95.7892 29.05 95.8292 28.24 95.9092 27.28L95.9692 26.5L96.0292 24.91C96.0292 24.21 95.9592 22.65 95.8192 20.23C95.6792 17.81 95.6092 16.25 95.6092 15.55C95.6092 15.49 95.6092 15.38 95.6092 15.22C95.6292 15.04 95.6392 14.77 95.6392 14.41C95.6592 14.01 95.6692 13.52 95.6692 12.94C95.6692 11.48 95.5692 10.55 95.3692 10.15C95.2492 10.15 94.9892 10.18 94.5892 10.24L93.7492 10.3C93.4892 10.3 93.2592 10.23 93.0592 10.09C92.8592 9.93 92.7592 9.73 92.7592 9.49C92.7592 9.25 92.9992 9.04 93.4792 8.86C94.1792 8.62 95.3692 8.45 97.0492 8.35C97.7292 8.31 98.1392 8.29 98.2792 8.29C98.5192 8.29 98.7392 8.37 98.9392 8.53C99.1392 8.69 99.2392 8.89 99.2392 9.13C99.2392 9.37 99.1492 9.57 98.9692 9.73C98.8092 9.87 98.5992 9.94 98.3392 9.94L97.7992 9.91C97.6392 9.89 97.4592 9.88 97.2592 9.88H96.9592C97.0992 11.24 97.1692 12.47 97.1692 13.57L97.1392 15.49C97.1192 16.07 97.1092 16.72 97.1092 17.44C97.1092 18.4 97.1492 19.55 97.2292 20.89C97.3292 22.55 97.3792 23.7 97.3792 24.34C97.3792 25.1 97.4192 26 97.4992 27.04C97.5792 28.1 97.6192 29 97.6192 29.74C97.6192 30.72 97.3292 31.21 96.7492 31.21Z" fill="black"/>
<path opacity="0.7" d="M80.0779 62.1823C79.7579 62.1823 79.5379 62.1223 79.4179 62.0023C79.3179 61.8823 79.2479 61.6523 79.2079 61.3123L78.9379 55.6423L78.9679 54.8023L78.9979 52.0123C78.9979 49.1123 78.9879 46.9323 78.9679 45.4723C78.9479 44.9923 78.9379 43.9023 78.9379 42.2023L78.9679 41.0023C78.9679 40.7823 78.9279 40.6523 78.8479 40.6123C78.7679 40.5523 78.5479 40.5023 78.1879 40.4623C77.7879 40.4223 77.4979 40.4023 77.3179 40.4023C76.7579 40.4023 76.2279 40.5123 75.7279 40.7323C75.6079 41.0123 75.5379 41.5923 75.5179 42.4723C75.4979 43.3523 75.4879 44.4323 75.4879 45.7123C75.4679 46.0123 75.4779 47.3223 75.5179 49.6423V52.0723C75.5179 52.4523 75.5579 53.0023 75.6379 53.7223C75.7179 54.5623 75.7579 55.2023 75.7579 55.6423C75.7579 55.9223 75.7379 56.2823 75.6979 56.7223L75.6679 57.6523L75.8179 61.0723C75.8179 61.3523 75.7379 61.5623 75.5779 61.7023C75.4179 61.8423 75.1979 61.9023 74.9179 61.8823C74.3579 61.8823 74.0779 61.6123 74.0779 61.0723C74.1379 58.9723 74.1679 56.8623 74.1679 54.7423V53.3323C74.1279 51.7723 74.0879 50.6123 74.0479 49.8523C74.0079 49.2523 73.9679 48.3923 73.9279 47.2723C73.8679 45.6923 73.7979 43.3723 73.7179 40.3123C73.7179 39.9723 73.7879 39.7223 73.9279 39.5623C74.0879 39.3823 74.3279 39.2823 74.6479 39.2623C76.7279 39.2223 78.2979 39.2023 79.3579 39.2023C79.7379 39.2023 80.0479 39.3223 80.2879 39.5623C80.5479 39.8023 80.6379 40.0923 80.5579 40.4323C80.4779 40.9123 80.4379 41.4623 80.4379 42.0823C80.4379 42.5423 80.4479 42.8923 80.4679 43.1323C80.4679 43.3123 80.4679 43.5323 80.4679 43.7923C80.4879 44.0523 80.4879 44.3523 80.4679 44.6923C80.4479 45.1323 80.4379 45.6823 80.4379 46.3423C80.3979 47.7823 80.3479 48.8023 80.2879 49.4023C80.3079 49.8623 80.3279 50.6023 80.3479 51.6223C80.3879 52.6223 80.4279 53.3323 80.4679 53.7523C80.4079 54.1323 80.3779 54.5223 80.3779 54.9223C80.3779 55.3823 80.4379 56.0923 80.5579 57.0523C80.6379 57.7523 80.6879 58.3023 80.7079 58.7023L80.7379 59.4223C80.7779 60.0623 80.7979 60.5323 80.7979 60.8323L80.7679 61.4923C80.7879 61.9523 80.5579 62.1823 80.0779 62.1823ZM86.2776 62.0623C85.8976 62.0623 85.5676 62.0123 85.2876 61.9123C84.9476 61.8123 84.7776 61.5323 84.7776 61.0723V43.6423C84.7776 43.3023 84.7176 42.7923 84.5976 42.1123C84.4576 41.4923 84.3876 40.9823 84.3876 40.5823V40.4923C84.7276 39.9323 84.9776 39.5723 85.1376 39.4123C85.4176 39.4123 85.7876 39.3723 86.2476 39.2923C86.6676 39.2123 87.0376 39.1723 87.3576 39.1723C87.6776 39.1723 87.9876 39.2723 88.2876 39.4723C88.5876 39.6523 88.7376 39.8723 88.7376 40.1323C88.7376 40.7323 88.2776 41.0323 87.3576 41.0323H86.9376C86.8176 41.0123 86.6776 41.0023 86.5176 41.0023C86.3376 41.0023 86.2276 41.0123 86.1876 41.0323C86.1876 41.7123 86.2276 42.5323 86.3076 43.4923L86.3676 44.3323L86.4276 45.9823C86.4276 46.3623 86.3976 46.9423 86.3376 47.7223L86.2776 49.4023L86.6976 49.3123C87.0976 49.1923 87.4276 49.1323 87.6876 49.1323C87.9076 49.1323 88.1076 49.2223 88.2876 49.4023C88.4676 49.5623 88.5576 49.7523 88.5576 49.9723C88.5576 50.2123 88.4776 50.4323 88.3176 50.6323C88.1776 50.8123 87.9976 50.9023 87.7776 50.9023L87.4176 50.8723H87.0276C86.7276 50.8723 86.5176 50.9423 86.3976 51.0823V60.3523L88.0776 60.2623C89.2176 60.2623 89.7876 60.5223 89.7876 61.0423V61.1623C89.6676 61.4023 89.4476 61.6023 89.1276 61.7623C88.8076 61.9023 88.4976 61.9923 88.1976 62.0323L87.2076 62.0623H86.2776ZM85.1676 38.3623C84.9076 38.3623 84.6676 38.2523 84.4476 38.0323C84.2476 37.8123 84.1476 37.5623 84.1476 37.2823C84.1476 36.9823 84.2576 36.7223 84.4776 36.5023C84.7176 36.2623 84.9876 36.1423 85.2876 36.1423C85.5676 36.1423 85.8076 36.2623 86.0076 36.5023C86.2276 36.7223 86.3376 36.9723 86.3376 37.2523C86.3376 37.5723 86.2276 37.8423 86.0076 38.0623C85.7876 38.2623 85.5076 38.3623 85.1676 38.3623ZM89.9976 38.5123C89.7376 38.5123 89.4976 38.4023 89.2776 38.1823C89.0776 37.9623 88.9776 37.7123 88.9776 37.4323C88.9776 37.1323 89.0876 36.8723 89.3076 36.6523C89.5476 36.4123 89.8176 36.2923 90.1176 36.2923C90.3976 36.2923 90.6476 36.4123 90.8676 36.6523C91.0876 36.8723 91.1976 37.1223 91.1976 37.4023C91.1976 37.7223 91.0776 37.9923 90.8376 38.2123C90.6176 38.4123 90.3376 38.5123 89.9976 38.5123ZM97.0572 62.3623C96.4972 62.3623 95.9772 62.2323 95.4972 61.9723C95.0372 61.7123 94.6372 61.3623 94.2972 60.9223C93.9972 60.5023 93.7272 59.9723 93.4872 59.3323C93.2472 58.6723 93.0672 57.9923 92.9472 57.2923C92.7072 56.1123 92.5472 54.5623 92.4672 52.6423C92.4472 52.1823 92.4372 51.3923 92.4372 50.2723V48.3823C92.4572 47.8423 92.4672 47.2823 92.4672 46.7023C92.4672 45.5223 92.5372 44.5923 92.6772 43.9123C92.6172 43.6123 92.5872 43.3023 92.5872 42.9823C92.5872 41.7823 93.0372 40.8123 93.9372 40.0723C94.8372 39.3323 95.9772 38.9623 97.3572 38.9623C97.8772 38.9623 98.3572 39.1023 98.7972 39.3823C99.2372 39.6623 99.4572 40.0123 99.4572 40.4323C99.4572 40.6323 99.3772 40.7923 99.2172 40.9123C99.0572 41.0323 98.8572 41.0923 98.6172 41.0923C98.4172 41.0923 98.1972 41.0623 97.9572 41.0023C97.7372 40.9423 97.5972 40.8523 97.5372 40.7323H97.1472V40.6723C96.4072 40.6723 95.7872 40.8323 95.2872 41.1523C94.9272 41.4123 94.6472 41.8423 94.4472 42.4423C94.3672 42.6623 94.3072 42.9423 94.2672 43.2823C94.2272 43.6223 94.2072 43.9323 94.2072 44.2123C94.1872 44.3723 94.1772 44.6923 94.1772 45.1723L94.2372 46.2223L94.2672 47.2423C94.2672 47.5423 94.2272 47.8923 94.1472 48.2923C94.0472 48.7923 93.9972 49.1423 93.9972 49.3423V50.0623C93.9972 50.8423 94.0272 51.9123 94.0872 53.2723C94.1072 54.4123 94.2372 55.5523 94.4772 56.6923C94.6572 57.7523 94.9972 58.6523 95.4972 59.3923C95.9772 60.1523 96.6272 60.5323 97.4472 60.5323C97.7872 60.5323 98.2072 60.3523 98.7072 59.9923C99.2472 59.6323 99.6272 59.4523 99.8472 59.4523C100.127 59.4523 100.417 59.6023 100.717 59.9023C100.717 60.6423 100.437 61.2123 99.8772 61.6123C99.3572 61.9723 98.7372 62.2023 98.0172 62.3023C97.6172 62.3423 97.2972 62.3623 97.0572 62.3623Z" fill="black"/>
<path d="M118.2 49.69C118.04 49.73 117.92 49.75 117.84 49.75C117.6 49.75 117.43 49.6 117.33 49.3C117.25 49.06 117.21 48.76 117.21 48.4L117.24 46.33C117.24 46.21 117.23 46.1 117.21 46C117.19 45.9 117.17 45.8 117.15 45.7H113.7C113.9 45.7 113.42 45.8 112.26 46C111.12 46.18 110.23 46.3 109.59 46.36L108.24 46.48L106.74 46.63C106.74 46.81 106.74 47.03 106.74 47.29C106.76 47.55 106.76 47.86 106.74 48.22V48.37C106.74 48.69 106.66 48.93 106.5 49.09C106.34 49.25 106.19 49.33 106.05 49.33C105.97 49.33 105.85 49.29 105.69 49.21C105.33 48.95 105.13 48.59 105.09 48.13L105 45.94C104.96 45.16 105.28 44.77 105.96 44.77C106.34 44.75 106.64 44.65 106.86 44.47C107.08 44.29 107.34 44.01 107.64 43.63C107.94 43.23 108.17 42.79 108.33 42.31C108.51 41.81 108.68 41.21 108.84 40.51C109.02 39.75 109.15 39.01 109.23 38.29C109.31 37.57 109.41 36.54 109.53 35.2C109.71 33.1 109.8 30.99 109.8 28.87L109.77 27.19C109.77 26.81 109.88 26.5 110.1 26.26C110.32 26 110.62 25.87 111 25.87C111.12 25.87 111.21 25.88 111.27 25.9C112.19 26.06 112.94 26.16 113.52 26.2H113.67C113.93 26.2 114.08 26.15 114.12 26.05C114.3 25.81 114.52 25.69 114.78 25.69C114.96 25.69 115.12 25.73 115.26 25.81C115.58 25.93 115.79 26.23 115.89 26.71L115.74 31.84C115.74 34.62 115.75 36.7 115.77 38.08C115.77 38.8 115.79 39.9 115.83 41.38L115.86 43.03C115.86 43.19 115.87 43.34 115.89 43.48C115.91 43.62 115.93 43.76 115.95 43.9C116.35 43.94 116.65 43.96 116.85 43.96C117.01 43.96 117.13 43.95 117.21 43.93C117.65 43.87 118.04 43.98 118.38 44.26C118.74 44.52 118.92 44.86 118.92 45.28C118.92 45.82 118.88 46.63 118.8 47.71C118.8 47.99 118.78 48.39 118.74 48.91C118.7 49.33 118.52 49.59 118.2 49.69ZM109.56 44.92C110.68 44.82 111.56 44.73 112.2 44.65C112.86 44.55 113.51 44.4 114.15 44.2C114.35 41.78 114.45 39.19 114.45 36.43C114.45 33.87 114.35 31.06 114.15 28C113.63 27.98 112.66 27.93 111.24 27.85L111.21 29.26C111.05 32.34 110.94 34.64 110.88 36.16C110.8 38.44 110.41 40.68 109.71 42.88C109.67 43 109.58 43.3 109.44 43.78C109.32 44.24 109.13 44.64 108.87 44.98L109.56 44.92ZM126.656 46.27C126.196 46.27 125.856 46.2 125.636 46.06C125.416 45.92 125.306 45.66 125.306 45.28C125.306 44.68 125.206 43.66 125.006 42.22L124.886 41.59L121.916 41.14C121.796 41.6 121.626 42.53 121.406 43.93C121.286 44.91 121.096 45.56 120.836 45.88C120.696 46.06 120.496 46.15 120.236 46.15C119.996 46.15 119.776 46.08 119.576 45.94C119.376 45.78 119.276 45.59 119.276 45.37L119.336 45.22L119.366 45.1C120.686 39.96 121.686 34.89 122.366 29.89C122.366 29.81 122.376 29.68 122.396 29.5C122.416 29.3 122.436 29.02 122.456 28.66C122.516 27.92 122.576 27.33 122.636 26.89C122.716 26.45 122.836 26.12 122.996 25.9H124.016C124.296 25.9 124.536 25.97 124.736 26.11C124.936 26.23 125.036 26.41 125.036 26.65C125.036 28.17 125.246 30.43 125.666 33.43C126.066 36.51 126.266 38.67 126.266 39.91C126.266 40.03 126.316 40.34 126.416 40.84C126.516 41.3 126.566 41.6 126.566 41.74C126.566 41.88 126.666 42.48 126.866 43.54C127.046 44.5 127.136 45.12 127.136 45.4V45.43C127.136 45.87 126.976 46.15 126.656 46.27ZM124.676 40.51C124.616 40.21 124.586 39.84 124.586 39.4C124.586 37.6 124.426 35.3 124.106 32.5L123.806 29.38C122.946 34.08 122.356 37.63 122.036 40.03C122.336 40.23 123.216 40.39 124.676 40.51Z" fill="#786354"/>
</svg>
