<svg width="41" height="58" viewBox="0 0 41 58" fill="none" xmlns="http://www.w3.org/2000/svg">
<path d="M20.4917 0.845703C9.71066 0.845703 0.939453 9.61691 0.939453 20.3979C0.939453 33.9485 20.5109 57.0957 20.5109 57.0957C20.5109 57.0957 40.0439 33.2821 40.0439 20.3979C40.0439 9.61691 31.2731 0.845703 20.4917 0.845703ZM26.391 26.1228C24.7643 27.7492 22.6282 28.5625 20.4917 28.5625C18.3555 28.5625 16.2187 27.7492 14.5927 26.1228C11.3397 22.8702 11.3397 17.5775 14.5927 14.3246C16.1679 12.7487 18.2632 11.8808 20.4917 11.8808C22.7202 11.8808 24.8151 12.749 26.391 14.3246C29.644 17.5775 29.644 22.8702 26.391 26.1228Z" fill="url(#paint0_linear)"/>
<defs>
<linearGradient id="paint0_linear" x1="20.4917" y1="0.845703" x2="20.4917" y2="57.0957" gradientUnits="userSpaceOnUse">
<stop stop-color="#B9AB9F"/>
<stop offset="1" stop-color="#786354"/>
</linearGradient>
</defs>
</svg>
